<svg id="svg" version="1.1" xmlns="http://www.w3.org/2000/svg" 
xmlns:xlink="http://www.w3.org/1999/xlink" width="400" 
height="386.8852459016394" viewBox="0, 0, 400,386.8852459016394">
<g id="svgg">
<path id="path0" d="M173.282 112.707 C 172.217 112.896,169.871 113.239,168.068 113.469 C 166.266 113.698,164.599 114.045,164.363 114.241 C 164.128 114.436,162.989 114.797,161.832 115.044 C 160.675 115.290,159.385 115.731,158.965 116.023 C 158.545 116.315,157.542 116.554,156.737 116.554 C 155.932 116.554,154.623 116.902,153.828 117.328 C 153.033 117.754,152.180 118.103,151.931 118.103 C 151.682 118.103,150.024 119.268,148.246 120.692 C 146.469 122.116,144.660 123.466,144.228 123.693 C 143.795 123.919,142.660 124.889,141.706 125.847 C 140.751 126.805,138.552 128.864,136.818 130.422 C 135.019 132.038,133.469 133.784,133.209 134.488 C 132.958 135.166,132.593 136.024,132.398 136.394 C 132.202 136.763,132.043 137.139,132.043 137.229 C 132.043 137.477,133.645 137.003,134.743 136.430 C 135.281 136.149,136.051 135.919,136.453 135.917 C 136.856 135.916,137.901 135.581,138.777 135.172 C 145.857 131.867,162.213 130.934,169.990 133.392 C 174.595 134.847,178.371 135.918,178.896 135.919 C 179.216 135.920,180.000 136.266,180.639 136.689 C 181.278 137.112,182.069 137.460,182.396 137.461 C 182.724 137.463,183.656 137.802,184.467 138.216 C 185.278 138.629,186.436 139.076,187.039 139.209 C 187.643 139.341,188.340 139.695,188.589 139.995 C 188.838 140.295,189.628 140.651,190.345 140.785 C 191.061 140.920,191.840 141.262,192.075 141.545 C 192.310 141.829,193.057 142.181,193.734 142.327 C 194.412 142.474,195.402 142.898,195.934 143.269 C 196.467 143.640,198.035 144.500,199.419 145.179 C 200.803 145.858,202.197 146.565,202.517 146.749 C 202.836 146.933,204.264 147.620,205.689 148.276 C 207.115 148.933,208.390 149.646,208.523 149.861 C 208.656 150.077,209.407 150.601,210.191 151.026 C 210.975 151.451,211.959 152.015,212.378 152.279 C 218.864 156.370,221.174 157.899,222.524 158.997 C 223.412 159.719,224.243 160.310,224.372 160.310 C 224.770 160.310,227.780 162.343,229.948 164.077 C 231.086 164.987,232.131 165.732,232.272 165.733 C 232.412 165.734,233.130 166.300,233.867 166.991 C 235.127 168.172,238.347 170.698,245.111 175.815 C 246.709 177.023,248.538 178.528,249.177 179.160 C 249.816 179.791,251.732 181.428,253.435 182.797 C 255.139 184.166,257.927 186.567,259.631 188.134 C 261.335 189.700,263.392 191.320,264.201 191.733 C 265.010 192.146,265.776 192.757,265.904 193.090 C 266.032 193.422,267.287 194.210,268.693 194.840 C 270.099 195.470,271.597 196.311,272.023 196.708 C 272.449 197.105,274.452 198.257,276.475 199.269 L 280.152 201.107 284.413 201.125 C 289.865 201.148,290.907 200.661,293.514 196.879 C 293.833 196.416,294.561 195.360,295.131 194.533 L 296.168 193.030 295.695 186.622 C 295.287 181.083,295.101 180.017,294.321 178.756 L 293.420 177.297 290.079 177.533 C 285.899 177.828,281.760 176.536,278.163 173.812 C 276.916 172.868,275.223 171.683,274.400 171.178 C 269.138 167.950,266.019 165.214,251.471 151.060 C 244.950 144.717,240.132 140.541,233.301 135.313 C 231.384 133.846,229.597 132.349,229.330 131.985 C 229.063 131.622,227.581 130.498,226.039 129.487 C 224.496 128.476,221.830 126.728,220.116 125.602 C 217.296 123.751,215.112 122.574,208.777 119.494 C 207.642 118.942,206.507 118.490,206.255 118.490 C 206.003 118.490,205.147 118.141,204.352 117.715 C 203.557 117.289,202.595 116.941,202.213 116.941 C 201.831 116.941,200.874 116.612,200.086 116.210 C 199.298 115.809,197.998 115.363,197.197 115.219 C 196.396 115.076,194.695 114.636,193.417 114.241 C 189.201 112.939,177.138 112.019,173.282 112.707 M129.526 172.178 C 121.160 173.920,112.957 180.418,111.718 186.284 C 111.564 187.013,110.982 188.095,110.425 188.688 C 108.854 190.360,108.804 206.583,110.360 209.491 C 110.554 209.853,110.972 212.375,111.288 215.094 C 112.136 222.385,113.042 223.196,116.542 219.803 C 119.699 216.745,120.830 216.426,128.511 216.426 C 133.183 216.426,135.396 216.582,136.564 216.993 C 137.449 217.306,138.969 217.681,139.940 217.826 C 141.772 218.101,147.666 219.652,152.372 221.098 C 153.863 221.556,156.298 222.279,157.784 222.704 C 159.270 223.130,160.670 223.631,160.894 223.817 C 161.119 224.003,162.778 224.585,164.581 225.110 C 166.385 225.635,169.690 226.670,171.926 227.410 C 174.163 228.149,176.602 228.882,177.348 229.037 C 178.093 229.192,179.487 229.633,180.445 230.016 C 182.237 230.732,184.877 231.539,191.288 233.329 C 193.311 233.894,196.360 234.762,198.064 235.258 C 199.768 235.754,202.207 236.274,203.485 236.414 C 204.763 236.553,205.988 236.814,206.208 236.994 C 206.428 237.174,208.063 237.504,209.842 237.727 C 211.620 237.950,213.276 238.299,213.521 238.502 C 213.766 238.706,215.071 239.050,216.420 239.267 C 217.769 239.484,219.245 239.906,219.699 240.203 C 220.153 240.501,222.093 240.864,224.009 241.011 C 225.925 241.157,228.800 241.527,230.397 241.834 C 241.797 244.018,262.173 244.601,269.119 242.942 C 271.355 242.407,274.441 241.710,275.976 241.391 C 282.989 239.938,289.694 234.342,290.399 229.354 C 290.597 227.953,291.114 226.488,291.731 225.579 C 293.699 222.680,292.890 219.737,290.610 221.497 C 285.709 225.280,267.519 226.920,257.890 224.447 C 250.425 222.529,248.094 221.835,246.655 221.101 C 245.845 220.688,244.426 220.235,243.501 220.094 C 242.576 219.954,241.559 219.621,241.239 219.355 C 240.920 219.089,240.223 218.744,239.690 218.587 C 239.158 218.430,238.461 218.077,238.141 217.802 C 237.822 217.528,236.820 217.106,235.915 216.865 C 235.010 216.624,234.269 216.268,234.269 216.073 C 234.269 215.878,233.703 215.551,233.011 215.347 C 232.318 215.142,230.794 214.439,229.622 213.785 C 228.451 213.130,227.231 212.496,226.912 212.375 C 226.592 212.254,225.895 211.921,225.363 211.635 C 224.831 211.350,222.928 210.364,221.135 209.446 C 219.342 208.527,217.316 207.397,216.634 206.934 C 215.952 206.471,214.544 205.658,213.505 205.128 C 203.194 199.863,200.733 198.522,199.349 197.412 C 197.763 196.141,196.808 195.555,193.804 194.012 C 192.953 193.575,190.862 192.440,189.158 191.490 C 187.454 190.541,185.624 189.584,185.092 189.364 C 184.560 189.144,183.863 188.794,183.543 188.586 C 182.976 188.216,178.116 185.818,176.960 185.338 C 176.641 185.205,176.118 184.934,175.799 184.735 C 175.479 184.535,174.347 183.993,173.282 183.530 C 172.217 183.066,170.126 182.109,168.635 181.402 C 165.943 180.126,158.193 177.241,154.114 175.996 C 152.943 175.639,151.375 175.117,150.629 174.837 C 144.783 172.640,133.893 171.268,129.526 172.178 M168.787 261.620 C 164.350 262.882,162.643 273.245,166.067 278.129 C 166.699 279.030,167.331 280.493,167.470 281.379 C 167.773 283.304,168.469 284.001,170.674 284.588 C 171.582 284.830,172.889 285.359,173.578 285.764 C 174.267 286.169,176.399 286.780,178.316 287.122 C 180.232 287.464,183.369 288.157,185.286 288.663 C 187.202 289.169,189.729 289.780,190.900 290.021 C 193.487 290.553,214.398 290.591,215.779 290.066 C 216.300 289.868,219.062 289.158,221.916 288.489 C 224.770 287.820,228.151 286.921,229.429 286.493 C 230.707 286.064,233.233 285.234,235.044 284.647 C 236.854 284.061,239.051 283.129,239.926 282.576 C 240.801 282.022,242.282 281.366,243.217 281.118 C 244.153 280.869,245.809 280.078,246.899 279.359 C 247.989 278.640,249.620 277.886,250.524 277.683 C 251.427 277.480,252.636 276.864,253.210 276.314 C 253.784 275.764,254.400 275.315,254.579 275.315 C 254.759 275.315,255.724 274.574,256.725 273.669 C 257.726 272.764,259.132 271.588,259.849 271.055 C 262.037 269.432,269.119 262.211,269.119 261.603 C 269.119 261.177,266.714 261.372,264.912 261.944 C 261.594 262.998,259.260 263.771,256.620 264.692 C 255.176 265.196,252.301 265.793,250.231 266.020 C 248.160 266.246,244.724 266.619,242.594 266.850 C 238.136 267.332,221.956 267.104,213.166 266.435 C 209.971 266.192,204.046 265.756,200.000 265.466 C 194.744 265.090,192.287 264.756,191.396 264.296 C 190.201 263.680,187.935 263.176,181.607 262.120 C 178.683 261.631,169.945 261.291,168.787 261.620 " stroke="none" fill="#467ddb" fill-rule="evenodd"></path><path id="path1" d="M146.951 49.214 C 145.556 49.519,141.433 51.370,140.949 51.910 C 140.842 52.028,140.145 52.365,139.400 52.658 C 138.654 52.951,137.629 53.507,137.121 53.895 C 136.613 54.282,135.926 54.598,135.593 54.598 C 135.260 54.598,134.369 54.995,133.612 55.479 C 131.364 56.919,130.737 57.290,129.719 57.788 C 129.187 58.048,128.664 58.371,128.558 58.505 C 128.451 58.640,127.754 59.060,127.009 59.439 C 126.263 59.817,125.566 60.258,125.460 60.417 C 125.353 60.576,124.656 60.994,123.911 61.346 C 121.182 62.633,120.077 63.346,118.238 65.003 C 117.205 65.934,115.633 67.025,114.745 67.428 C 113.857 67.831,113.073 68.311,113.003 68.495 C 112.933 68.679,111.655 69.463,110.165 70.236 C 102.817 74.046,101.247 75.990,100.298 82.445 C 99.851 85.486,100.300 89.030,101.282 90.223 C 102.004 91.100,107.260 101.497,107.260 102.050 C 107.260 102.314,107.512 102.627,107.820 102.746 C 108.128 102.864,108.493 103.568,108.633 104.311 C 108.772 105.053,109.207 105.952,109.600 106.307 C 109.993 106.663,110.424 107.451,110.557 108.059 C 110.857 109.426,112.522 112.924,113.018 113.231 C 114.009 113.843,113.799 120.033,112.771 120.493 C 112.616 120.562,111.834 121.580,111.034 122.755 C 110.235 123.929,109.102 125.403,108.517 126.029 C 107.213 127.425,105.241 130.424,103.926 133.011 C 103.384 134.076,102.189 136.254,101.269 137.851 C 98.039 143.460,94.240 151.356,93.862 153.244 C 93.726 153.926,93.379 154.680,93.090 154.919 C 92.802 155.158,92.455 155.947,92.319 156.672 C 92.081 157.943,90.274 159.923,89.352 159.923 C 89.119 159.923,88.592 160.227,88.180 160.600 C 87.512 161.205,86.101 161.302,74.984 161.503 C 66.036 161.665,61.348 161.917,58.310 162.398 L 54.085 163.068 51.199 166.045 C 49.612 167.683,47.893 169.825,47.379 170.805 L 46.444 172.588 46.552 197.330 L 46.660 222.072 47.587 223.814 C 48.643 225.801,53.073 230.271,54.568 230.859 C 56.274 231.531,61.699 231.949,73.959 232.356 C 82.586 232.642,86.083 232.893,86.931 233.290 C 87.570 233.588,88.646 233.942,89.323 234.075 C 90.050 234.219,90.834 234.744,91.240 235.358 C 92.598 237.416,93.670 239.676,93.921 241.012 C 94.061 241.761,94.414 242.571,94.706 242.813 C 94.998 243.055,95.350 243.859,95.489 244.600 C 95.628 245.341,95.970 246.035,96.250 246.143 C 96.529 246.250,96.868 246.838,97.002 247.449 C 97.136 248.060,97.559 248.960,97.941 249.449 C 98.323 249.939,98.767 250.774,98.928 251.307 C 99.089 251.839,99.441 252.536,99.710 252.856 C 99.979 253.175,100.330 253.872,100.490 254.405 C 100.651 254.937,100.913 255.460,101.073 255.566 C 101.677 255.967,105.282 262.435,105.595 263.678 C 105.726 264.199,107.200 266.377,108.870 268.518 C 110.540 270.659,111.907 272.622,111.907 272.881 C 111.907 273.140,112.256 273.538,112.682 273.766 C 113.643 274.280,113.828 279.635,112.930 280.940 C 112.641 281.360,112.192 282.357,111.932 283.156 C 111.672 283.955,111.299 284.608,111.103 284.608 C 110.906 284.608,110.745 284.885,110.745 285.223 C 110.745 285.909,108.173 290.673,107.616 291.017 C 107.421 291.137,107.260 291.623,107.260 292.095 C 107.260 292.568,106.970 293.369,106.615 293.875 C 106.261 294.382,104.649 297.427,103.034 300.641 L 100.097 306.486 100.200 310.331 C 100.265 312.763,100.514 314.599,100.877 315.327 C 101.194 315.961,101.452 316.703,101.452 316.978 C 101.452 317.742,104.617 320.780,106.017 321.360 C 106.701 321.643,107.260 322.028,107.260 322.215 C 107.260 322.403,107.431 322.556,107.640 322.556 C 107.849 322.556,108.938 323.133,110.060 323.839 C 111.182 324.546,112.768 325.432,113.585 325.809 C 115.296 326.599,117.169 327.832,118.350 328.945 C 119.571 330.095,120.927 331.075,121.298 331.075 C 121.478 331.075,122.619 331.733,123.833 332.538 C 125.047 333.344,126.607 334.236,127.299 334.521 C 127.991 334.807,128.558 335.158,128.558 335.302 C 128.558 335.445,129.734 336.158,131.171 336.887 C 132.609 337.615,133.924 338.434,134.095 338.708 C 134.265 338.982,134.711 339.206,135.087 339.206 C 135.462 339.206,136.135 339.548,136.583 339.965 C 137.031 340.382,137.870 340.842,138.447 340.987 C 139.974 341.370,142.776 343.012,143.030 343.672 C 143.150 343.984,143.650 344.240,144.142 344.240 C 144.633 344.240,145.380 344.479,145.800 344.771 C 147.134 345.700,148.860 345.862,150.668 345.228 C 151.605 344.899,153.288 344.518,154.409 344.381 C 156.620 344.111,161.129 340.370,162.162 337.948 C 162.412 337.362,162.777 336.883,162.974 336.883 C 163.171 336.883,163.524 336.404,163.760 335.818 C 163.995 335.232,164.697 333.969,165.319 333.011 C 165.941 332.052,166.824 330.533,167.281 329.633 C 167.739 328.734,168.510 327.414,168.995 326.698 C 169.480 325.983,170.401 324.454,171.040 323.299 C 173.053 319.666,173.929 318.296,174.241 318.296 C 174.407 318.296,174.759 317.775,175.022 317.139 C 176.476 313.629,181.817 312.045,186.126 313.846 C 189.829 315.393,214.920 315.703,220.523 314.271 C 227.110 312.587,228.496 313.491,234.432 323.340 C 235.648 325.358,236.809 327.270,237.013 327.590 C 237.216 327.909,237.660 328.780,238.000 329.526 C 238.595 330.831,239.296 331.970,243.126 337.851 C 245.466 341.446,248.379 344.240,249.785 344.240 C 249.994 344.240,251.156 344.589,252.368 345.015 C 255.745 346.202,258.754 346.053,261.375 344.569 C 262.546 343.906,264.114 343.035,264.860 342.634 C 265.605 342.234,266.476 341.734,266.796 341.524 C 267.115 341.314,267.812 340.968,268.345 340.756 C 268.877 340.543,269.574 340.214,269.894 340.023 C 270.213 339.832,270.910 339.475,271.442 339.229 C 271.975 338.983,273.107 338.356,273.959 337.835 C 274.811 337.315,275.944 336.669,276.476 336.401 C 277.009 336.132,277.880 335.633,278.412 335.292 C 278.945 334.951,280.949 333.752,282.865 332.627 C 284.782 331.502,287.047 330.021,287.899 329.337 C 288.751 328.652,290.581 327.480,291.965 326.732 C 293.349 325.983,295.405 324.825,296.532 324.157 C 297.660 323.489,298.655 322.943,298.745 322.943 C 302.168 322.943,307.059 313.905,306.597 308.437 C 306.435 306.527,302.476 297.983,297.078 287.899 C 296.052 285.983,294.712 283.475,294.100 282.326 C 292.040 278.459,292.341 274.876,294.917 272.614 C 295.636 271.983,296.225 271.360,296.225 271.231 C 296.225 271.102,296.978 270.008,297.900 268.799 C 298.821 267.591,299.692 266.341,299.834 266.021 C 300.483 264.570,303.338 259.555,303.912 258.858 C 305.099 257.416,311.713 244.574,311.713 243.710 C 311.713 243.468,311.975 243.053,312.294 242.788 C 312.614 242.523,312.879 241.848,312.884 241.289 C 312.889 240.729,313.455 239.138,314.142 237.754 C 316.194 233.621,319.253 232.762,332.043 232.724 C 347.755 232.678,351.575 231.915,355.509 228.035 C 359.589 224.011,359.298 226.216,359.326 199.137 C 359.351 175.521,359.129 170.489,358.005 169.240 C 353.560 164.298,351.994 163.102,349.371 162.645 C 347.941 162.396,346.589 162.040,346.365 161.855 C 346.142 161.669,339.778 161.464,332.224 161.398 L 318.490 161.278 317.148 160.310 C 315.473 159.101,314.454 157.954,314.437 157.258 C 314.430 156.963,314.094 156.179,313.691 155.515 C 313.288 154.851,312.842 153.754,312.698 153.076 C 312.555 152.399,312.193 151.641,311.892 151.392 C 311.592 151.142,311.237 150.352,311.102 149.636 C 310.968 148.920,310.626 148.141,310.343 147.906 C 310.059 147.670,309.709 146.924,309.566 146.246 C 309.422 145.569,309.079 144.753,308.803 144.434 C 308.528 144.114,307.730 142.720,307.032 141.336 C 306.333 139.952,305.543 138.600,305.278 138.333 C 305.012 138.065,304.675 137.455,304.529 136.977 C 304.384 136.499,304.044 135.847,303.774 135.528 C 303.504 135.208,302.733 133.907,302.062 132.637 C 301.390 131.367,300.610 130.060,300.329 129.733 C 300.047 129.406,299.327 128.287,298.727 127.245 C 298.127 126.204,297.227 124.911,296.727 124.371 C 296.227 123.831,295.439 122.766,294.976 122.004 C 294.514 121.243,294.006 120.529,293.848 120.417 C 292.028 119.138,291.338 116.731,292.352 115.198 C 292.776 114.560,293.123 113.750,293.124 113.399 C 293.127 112.620,295.297 108.175,295.837 107.842 C 296.050 107.710,296.228 107.307,296.233 106.947 C 296.238 106.587,296.583 105.857,296.999 105.324 C 297.416 104.792,297.764 104.095,297.773 103.775 C 297.783 103.456,298.310 102.236,298.945 101.065 C 299.580 99.894,300.910 97.280,301.900 95.257 C 302.890 93.233,303.848 91.520,304.028 91.449 C 304.209 91.378,304.356 91.060,304.356 90.743 C 304.356 90.426,304.815 89.385,305.375 88.429 C 307.608 84.618,303.774 72.892,300.267 72.808 C 300.041 72.802,299.518 72.487,299.105 72.107 C 298.335 71.399,292.191 67.764,291.763 67.764 C 291.539 67.764,287.898 64.992,286.457 63.725 C 286.090 63.401,285.345 63.025,284.801 62.889 C 284.258 62.752,283.637 62.312,283.422 61.911 C 283.208 61.509,282.713 61.181,282.323 61.181 C 281.933 61.181,281.172 60.833,280.630 60.407 C 280.089 59.981,279.389 59.632,279.076 59.632 C 278.763 59.632,278.268 59.344,277.976 58.991 C 277.683 58.639,276.922 58.113,276.283 57.822 C 275.644 57.531,274.002 56.679,272.635 55.928 C 271.268 55.177,269.264 54.194,268.182 53.742 C 267.100 53.291,265.866 52.622,265.440 52.256 C 265.015 51.889,264.230 51.462,263.698 51.306 C 263.166 51.149,262.469 50.794,262.149 50.516 C 260.364 48.961,253.708 48.814,250.489 50.259 C 249.554 50.678,248.441 51.134,248.015 51.273 C 247.590 51.412,246.631 52.329,245.886 53.311 C 245.140 54.293,244.226 55.420,243.853 55.815 C 243.480 56.211,243.175 56.679,243.175 56.855 C 243.175 57.176,240.890 60.816,240.459 61.181 C 239.945 61.616,238.592 64.179,238.157 65.541 C 237.901 66.341,237.488 67.217,237.239 67.487 C 236.459 68.332,235.044 70.429,235.037 70.749 C 235.029 71.064,234.172 72.370,231.208 76.581 C 228.198 80.858,227.904 80.931,218.974 79.623 C 213.283 78.790,197.485 78.783,189.739 79.610 C 179.511 80.702,179.266 80.709,177.858 79.950 C 176.489 79.213,174.413 76.656,172.365 73.185 C 171.674 72.014,170.599 70.271,169.976 69.313 C 169.354 68.354,168.658 67.135,168.431 66.602 C 167.279 63.900,166.540 62.609,163.537 58.055 C 162.614 56.655,161.859 55.402,161.859 55.270 C 161.859 53.558,155.407 49.841,151.597 49.358 C 150.532 49.223,149.400 49.059,149.080 48.994 C 148.761 48.929,147.803 49.028,146.951 49.214 M213.539 102.052 C 214.329 102.382,216.677 102.800,218.756 102.981 C 220.836 103.161,223.043 103.566,223.660 103.880 C 224.277 104.194,225.772 104.572,226.982 104.719 C 228.191 104.866,229.386 105.233,229.636 105.534 C 229.887 105.836,230.941 106.196,231.980 106.333 C 233.019 106.471,234.063 106.819,234.301 107.106 C 234.539 107.392,235.370 107.744,236.147 107.887 C 236.925 108.030,237.976 108.470,238.484 108.865 C 238.992 109.260,239.706 109.584,240.070 109.584 C 240.435 109.584,241.135 109.932,241.626 110.358 C 242.117 110.784,242.833 111.133,243.216 111.133 C 244.093 111.133,245.886 111.934,245.886 112.326 C 245.886 112.488,246.409 112.735,247.047 112.875 C 247.686 113.015,248.209 113.286,248.209 113.477 C 248.209 113.667,248.775 114.116,249.468 114.474 C 250.160 114.832,251.249 115.610,251.888 116.202 C 252.527 116.795,254.530 118.268,256.341 119.475 C 258.151 120.682,260.329 122.322,261.181 123.118 C 262.033 123.915,263.340 124.935,264.085 125.386 C 266.830 127.046,277.187 138.043,278.793 141.003 C 282.943 148.652,284.011 150.539,284.652 151.353 C 285.054 151.864,285.382 152.597,285.382 152.982 C 285.382 153.367,285.556 153.789,285.768 153.920 C 286.279 154.235,290.029 162.104,290.029 162.860 C 290.029 163.183,290.357 164.092,290.757 164.880 C 294.184 171.621,293.686 176.465,289.496 177.138 C 286.509 177.618,286.571 177.675,289.885 177.492 L 293.420 177.297 294.321 178.756 C 295.101 180.017,295.287 181.083,295.695 186.622 L 296.168 193.030 295.131 194.533 C 294.561 195.360,293.818 196.450,293.479 196.956 C 293.141 197.461,292.399 198.396,291.831 199.034 C 291.262 199.672,290.934 200.194,291.101 200.194 C 291.651 200.194,293.901 197.926,293.901 197.371 C 293.901 197.073,294.250 196.513,294.676 196.128 C 295.102 195.742,295.450 195.193,295.450 194.906 C 295.450 194.142,296.136 194.271,296.394 195.084 C 296.716 196.099,295.545 210.724,294.869 214.127 C 294.004 218.476,290.756 221.133,283.446 223.467 C 280.650 224.361,280.112 224.395,268.965 224.395 C 255.755 224.395,255.376 225.135,268.345 225.606 C 276.791 225.914,287.433 223.950,290.610 221.497 C 292.890 219.737,293.699 222.680,291.731 225.579 C 291.114 226.488,290.597 227.953,290.399 229.354 C 289.695 234.337,283.004 239.924,275.976 241.398 C 266.254 243.438,263.075 244.385,268.773 243.544 C 274.380 242.716,278.942 241.439,281.325 240.030 C 284.485 238.161,285.378 237.554,285.380 237.270 C 285.381 237.110,285.731 236.980,286.157 236.980 C 287.335 236.980,287.110 238.075,285.437 240.487 C 284.615 241.670,283.735 243.268,283.481 244.038 C 283.227 244.807,282.767 245.646,282.458 245.902 C 282.150 246.158,281.897 246.527,281.897 246.722 C 281.897 247.519,274.434 256.862,272.478 258.514 C 271.751 259.128,270.897 259.439,269.938 259.439 C 269.143 259.439,268.154 259.694,267.741 260.007 C 267.328 260.320,266.467 260.585,265.828 260.596 C 265.189 260.608,263.906 260.962,262.978 261.383 C 262.050 261.804,261.071 262.149,260.804 262.149 C 260.536 262.149,259.865 262.505,259.312 262.940 C 257.988 263.982,255.549 264.658,250.226 265.460 C 247.821 265.822,245.920 266.185,246.001 266.266 C 246.403 266.667,254.326 265.493,256.621 264.692 C 259.260 263.771,261.593 262.998,264.912 261.944 C 266.714 261.372,269.119 261.177,269.119 261.603 C 269.119 262.211,262.037 269.432,259.849 271.055 C 259.132 271.588,257.726 272.764,256.725 273.669 C 255.724 274.574,254.759 275.315,254.579 275.315 C 254.400 275.315,253.784 275.764,253.210 276.314 C 252.636 276.864,251.427 277.480,250.524 277.683 C 249.620 277.886,247.989 278.640,246.899 279.359 C 245.809 280.078,244.153 280.869,243.217 281.118 C 242.282 281.366,240.801 282.022,239.926 282.576 C 239.051 283.129,236.854 284.061,235.044 284.647 C 233.233 285.234,230.707 286.064,229.429 286.493 C 228.151 286.921,224.770 287.820,221.916 288.489 C 219.062 289.158,216.300 289.868,215.779 290.066 C 214.398 290.591,193.487 290.553,190.900 290.021 C 189.729 289.780,187.202 289.169,185.286 288.663 C 183.369 288.157,180.232 287.464,178.316 287.122 C 176.399 286.780,174.267 286.169,173.578 285.764 C 172.889 285.359,171.582 284.830,170.674 284.588 C 168.447 283.996,167.748 283.280,167.449 281.292 C 167.311 280.369,166.781 279.048,166.271 278.357 L 165.344 277.100 165.346 278.240 C 165.347 278.867,165.609 279.880,165.927 280.490 C 166.989 282.527,166.103 282.901,163.509 281.510 C 162.714 281.084,161.865 280.736,161.623 280.736 C 161.039 280.736,157.998 279.024,154.934 276.971 C 153.575 276.060,152.300 275.315,152.101 275.315 C 151.747 275.315,149.391 273.661,148.375 272.701 C 148.094 272.435,147.630 272.217,147.344 272.217 C 146.491 272.217,140.881 267.844,139.105 265.795 C 138.198 264.748,137.230 263.630,136.954 263.311 C 136.678 262.991,135.678 262.025,134.731 261.164 C 132.265 258.920,129.049 254.987,126.354 250.920 C 125.579 249.748,124.383 248.093,123.699 247.241 C 123.014 246.389,121.994 244.777,121.433 243.659 C 120.872 242.541,120.240 241.626,120.029 241.626 C 119.817 241.626,119.097 240.450,118.427 239.013 C 117.758 237.575,116.888 235.765,116.495 234.991 C 116.101 234.216,115.779 233.286,115.779 232.922 C 115.779 232.559,115.431 231.819,115.005 231.277 C 114.579 230.736,114.230 229.959,114.230 229.551 C 114.230 229.143,113.954 228.274,113.615 227.620 C 112.996 226.422,113.133 223.814,113.816 223.814 C 113.994 223.814,114.223 223.379,114.325 222.846 C 114.438 222.253,114.332 221.878,114.051 221.878 C 112.601 221.878,111.868 220.076,111.288 215.094 C 110.972 212.375,110.546 209.838,110.342 209.456 C 110.138 209.075,109.957 208.273,109.940 207.673 C 109.924 207.073,109.822 206.801,109.715 207.067 C 109.607 207.333,109.359 207.551,109.164 207.551 C 108.668 207.551,108.699 191.788,109.197 191.481 C 109.409 191.349,109.584 190.827,109.584 190.319 C 109.584 189.812,109.773 189.280,110.005 189.137 C 110.308 188.950,110.308 188.759,110.005 188.456 C 109.322 187.773,109.470 180.298,110.201 178.594 C 110.540 177.802,110.960 176.052,111.135 174.705 C 111.309 173.358,111.706 171.964,112.017 171.607 C 112.329 171.250,112.672 170.124,112.780 169.103 C 112.888 168.083,113.236 166.950,113.552 166.586 C 113.869 166.222,114.244 165.156,114.387 164.217 C 114.530 163.278,114.888 162.059,115.183 161.507 C 115.478 160.955,116.057 159.719,116.470 158.761 C 120.521 149.363,122.232 146.382,126.640 141.045 C 126.859 140.779,127.386 140.561,127.811 140.561 C 128.235 140.561,128.682 140.300,128.805 139.981 C 128.927 139.661,129.245 139.400,129.511 139.400 C 130.639 139.400,132.076 137.488,133.202 134.488 C 133.463 133.792,135.039 132.020,136.818 130.422 C 138.552 128.864,140.751 126.805,141.706 125.847 C 142.660 124.889,143.795 123.919,144.228 123.693 C 144.660 123.466,146.469 122.116,148.246 120.692 C 150.024 119.268,151.653 118.103,151.866 118.103 C 153.015 118.103,154.897 116.804,154.691 116.154 C 154.437 115.355,157.359 113.175,159.171 112.812 C 159.770 112.693,160.349 112.362,160.458 112.079 C 160.567 111.795,161.269 111.448,162.018 111.307 C 162.767 111.167,163.572 110.820,163.808 110.536 C 164.043 110.253,164.790 109.903,165.467 109.759 C 166.145 109.615,166.991 109.240,167.349 108.925 C 167.706 108.610,168.725 108.189,169.614 107.989 C 170.502 107.790,171.469 107.386,171.763 107.092 C 172.058 106.797,173.039 106.432,173.943 106.279 C 174.848 106.126,175.940 105.781,176.371 105.513 C 176.802 105.245,178.098 104.909,179.252 104.766 C 180.406 104.623,181.972 104.246,182.732 103.928 C 183.492 103.611,185.723 103.199,187.689 103.013 C 189.655 102.827,191.468 102.548,191.717 102.394 C 193.282 101.427,211.365 101.144,213.539 102.052 M260.221 159.342 C 262.093 161.872,270.472 168.844,274.347 171.095 C 275.754 171.913,275.807 171.920,274.927 171.174 C 274.395 170.722,273.611 170.046,273.185 169.671 C 272.759 169.297,271.431 168.349,270.233 167.566 C 269.036 166.783,266.683 164.845,265.006 163.260 C 261.330 159.786,259.351 158.165,260.221 159.342 M276.476 172.471 C 276.476 173.220,283.973 177.337,284.457 176.853 C 284.636 176.674,279.002 173.475,278.506 173.475 C 278.294 173.475,277.903 173.214,277.638 172.894 C 277.195 172.361,276.476 172.099,276.476 172.471 M258.888 187.877 C 259.324 188.647,264.038 192.449,264.557 192.449 C 264.761 192.449,265.272 192.841,265.691 193.320 L 266.452 194.192 266.032 193.324 C 265.800 192.847,265.050 192.173,264.364 191.827 C 263.678 191.480,262.085 190.307,260.824 189.221 C 259.563 188.135,258.692 187.530,258.888 187.877 M268.128 194.964 C 268.542 195.285,269.107 195.547,269.386 195.547 C 269.664 195.547,270.545 196.134,271.344 196.851 C 272.858 198.209,275.328 199.626,277.623 200.451 C 280.123 201.350,279.307 200.611,276.075 199.048 C 274.305 198.192,272.495 197.163,272.053 196.761 C 271.150 195.941,270.078 195.346,268.467 194.771 C 267.450 194.407,267.427 194.420,268.128 194.964 M289.448 200.689 C 288.943 200.996,287.059 201.147,284.027 201.122 L 279.380 201.083 281.123 201.851 C 283.906 203.077,289.119 202.366,290.203 200.613 C 290.527 200.088,290.416 200.099,289.448 200.689 M247.464 221.479 C 248.033 221.817,254.806 223.738,256.534 224.053 C 256.960 224.130,255.564 223.615,253.432 222.909 C 249.315 221.545,246.397 220.846,247.464 221.479 M223.814 241.431 C 229.280 242.457,235.187 243.175,237.729 243.123 C 240.269 243.071,240.268 243.070,236.786 242.739 C 234.869 242.556,231.994 242.154,230.397 241.845 C 228.800 241.536,226.012 241.194,224.201 241.085 L 220.910 240.886 223.814 241.431 M248.790 244.119 C 250.884 244.693,256.563 244.804,260.600 244.351 C 262.576 244.129,261.777 244.055,256.879 244.009 C 253.448 243.976,249.789 243.868,248.747 243.769 L 246.854 243.589 248.790 244.119 M170.285 260.613 C 168.263 260.953,166.578 262.109,165.505 263.892 C 165.121 264.530,164.579 265.284,164.301 265.565 C 163.703 266.169,163.590 274.004,164.165 274.914 C 164.391 275.270,164.440 273.885,164.298 271.193 L 164.072 266.905 166.105 264.368 C 167.223 262.972,168.512 261.730,168.968 261.608 C 170.295 261.251,177.983 261.341,178.991 261.724 C 179.497 261.917,181.556 262.273,183.566 262.517 C 185.577 262.761,187.640 263.064,188.151 263.192 C 188.776 263.348,188.993 263.284,188.815 262.995 C 188.669 262.759,187.902 262.465,187.111 262.342 C 186.320 262.219,185.062 261.956,184.314 261.759 C 179.947 260.604,173.475 260.076,170.285 260.613 M191.481 264.325 C 192.691 264.973,203.195 266.021,207.744 265.948 C 209.445 265.921,209.001 265.829,206.088 265.605 C 203.899 265.437,201.546 265.118,200.860 264.896 C 199.864 264.573,192.374 263.692,190.707 263.701 C 190.494 263.702,190.842 263.983,191.481 264.325 M214.327 266.421 C 215.818 266.574,217.996 266.694,219.167 266.687 C 221.243 266.674,221.228 266.667,218.587 266.396 C 217.096 266.243,214.918 266.123,213.746 266.130 C 211.671 266.143,211.686 266.150,214.327 266.421 M241.427 266.418 C 241.298 266.626,239.853 266.816,238.215 266.841 C 236.577 266.865,235.574 266.971,235.986 267.076 C 236.702 267.259,245.678 266.822,245.427 266.617 C 245.006 266.274,241.620 266.105,241.427 266.418 " stroke="none" fill="#979797" fill-rule="evenodd"></path><path id="path2" d="M0.000 193.611 L 0.000 387.222 200.000 387.222 L 400.000 387.222 400.000 193.611 L 400.000 0.000 200.000 0.000 L 0.000 0.000 0.000 193.611 M155.787 48.616 C 159.838 50.262,160.188 50.641,166.394 60.060 C 167.292 61.422,168.175 62.713,168.358 62.930 C 168.540 63.146,168.885 63.883,169.123 64.567 C 169.362 65.251,169.742 66.033,169.969 66.303 C 170.822 67.325,173.279 71.125,174.230 72.894 C 177.352 78.706,178.418 79.255,184.956 78.416 C 194.012 77.255,196.054 77.119,204.647 77.108 C 213.038 77.097,214.562 77.206,221.899 78.342 C 226.504 79.055,227.440 78.886,228.766 77.105 C 229.341 76.333,229.959 75.595,230.139 75.464 C 230.320 75.333,230.669 74.873,230.916 74.443 C 232.267 72.088,234.860 67.879,235.270 67.377 C 235.531 67.057,236.295 65.707,236.968 64.376 C 237.641 63.045,238.354 61.955,238.553 61.955 C 238.753 61.955,238.916 61.717,238.916 61.426 C 238.916 61.135,239.700 59.727,240.658 58.298 C 241.617 56.869,242.401 55.601,242.401 55.481 C 242.401 54.623,247.663 49.215,248.521 49.191 C 248.799 49.183,249.844 48.801,250.844 48.340 C 255.184 46.343,259.319 46.868,265.006 50.141 C 266.949 51.258,268.929 52.294,269.407 52.443 C 270.530 52.792,278.417 57.193,279.217 57.917 C 279.553 58.221,280.019 58.470,280.252 58.470 C 280.485 58.470,281.844 59.255,283.274 60.213 C 284.703 61.171,285.943 61.955,286.030 61.955 C 286.263 61.955,288.496 63.550,289.875 64.700 C 290.535 65.252,291.884 66.094,292.873 66.573 C 293.862 67.052,294.767 67.598,294.883 67.786 C 295.000 67.975,295.904 68.487,296.893 68.924 C 299.326 70.001,302.739 72.296,304.203 73.841 C 306.581 76.351,308.399 84.686,307.283 87.960 C 306.475 90.329,297.135 108.803,296.261 109.761 C 295.864 110.196,295.411 110.987,295.255 111.520 C 295.099 112.052,294.731 112.762,294.438 113.097 C 294.145 113.432,293.797 114.495,293.665 115.459 C 293.358 117.696,293.734 118.441,296.928 121.928 C 298.693 123.854,301.118 127.414,303.026 130.881 C 303.905 132.478,305.871 136.014,307.395 138.738 C 308.918 141.461,310.165 143.778,310.165 143.884 C 310.165 143.991,310.713 145.248,311.382 146.676 C 313.963 152.180,314.783 154.149,315.020 155.415 C 315.733 159.214,316.090 159.308,332.817 160.101 C 348.907 160.864,349.560 160.920,351.412 161.693 C 354.342 162.918,358.293 166.673,359.812 169.677 L 360.863 171.757 360.916 197.395 L 360.968 223.033 359.890 224.876 C 358.399 227.423,356.095 229.793,353.394 231.558 C 350.654 233.349,350.361 233.385,334.753 233.887 C 319.440 234.380,315.198 235.271,315.198 237.998 C 315.198 238.403,314.850 239.384,314.424 240.179 C 313.998 240.973,313.650 241.910,313.650 242.260 C 313.650 242.836,313.324 243.646,311.661 247.211 C 309.190 252.505,306.207 258.051,304.348 260.806 C 303.280 262.389,302.239 264.125,302.033 264.666 C 301.604 265.793,299.411 268.853,296.155 272.864 C 293.265 276.425,293.043 278.716,295.246 282.285 C 295.968 283.456,297.202 285.634,297.987 287.125 C 298.771 288.616,299.817 290.532,300.310 291.384 C 307.066 303.051,308.666 308.075,307.331 313.426 C 305.903 319.148,304.620 320.843,299.341 323.976 C 297.608 325.005,295.544 326.235,294.755 326.710 C 293.966 327.185,292.711 327.882,291.965 328.259 C 290.484 329.009,290.388 329.072,288.635 330.473 C 287.975 331.001,285.361 332.667,282.827 334.177 C 280.292 335.686,277.957 337.090,277.638 337.297 C 277.318 337.504,276.509 337.925,275.840 338.234 C 275.171 338.542,273.602 339.386,272.355 340.108 C 271.108 340.831,269.578 341.544,268.956 341.693 C 268.334 341.843,267.396 342.302,266.871 342.715 C 266.346 343.128,265.592 343.466,265.195 343.466 C 264.797 343.466,264.472 343.623,264.472 343.816 C 264.472 346.033,254.517 347.563,251.301 345.841 C 250.559 345.443,249.394 344.995,248.712 344.846 C 247.523 344.585,244.299 341.808,243.280 340.167 C 243.019 339.745,241.681 337.704,240.307 335.631 C 238.934 333.558,237.690 331.467,237.543 330.984 C 237.396 330.501,237.062 329.845,236.800 329.526 C 236.539 329.206,235.738 327.899,235.020 326.621 C 234.303 325.344,233.056 323.305,232.250 322.090 C 231.444 320.876,230.784 319.709,230.784 319.496 C 230.784 319.283,230.557 318.970,230.279 318.799 C 230.001 318.629,229.377 317.836,228.892 317.037 C 228.392 316.214,227.589 315.479,227.040 315.341 C 225.529 314.962,215.787 315.591,213.792 316.196 C 211.588 316.865,195.808 316.955,193.417 316.313 C 187.839 314.813,179.026 314.687,177.695 316.088 C 176.894 316.931,174.250 320.855,174.250 321.200 C 174.250 321.299,173.596 322.362,172.798 323.563 C 171.999 324.765,171.101 326.206,170.802 326.765 C 170.503 327.325,170.138 327.870,169.991 327.977 C 169.845 328.083,169.257 329.110,168.684 330.258 C 168.112 331.406,167.214 332.857,166.688 333.482 C 166.161 334.107,165.731 334.767,165.731 334.949 C 165.731 335.130,165.507 335.509,165.234 335.790 C 164.960 336.072,164.233 337.173,163.617 338.238 C 161.201 342.414,159.931 343.512,155.082 345.607 C 150.941 347.398,143.172 346.338,140.969 343.683 C 140.692 343.351,140.248 343.078,139.981 343.078 C 139.713 343.078,139.278 342.817,139.013 342.498 C 138.747 342.178,138.239 341.917,137.882 341.917 C 137.263 341.917,134.096 340.380,130.614 338.391 C 121.946 333.437,118.964 331.603,116.998 330.020 C 115.736 329.003,113.183 327.299,111.325 326.234 C 109.467 325.169,107.662 324.122,107.313 323.906 C 106.965 323.690,105.852 323.020,104.840 322.417 C 103.829 321.814,103.001 321.174,103.001 320.996 C 103.001 320.818,102.696 320.573,102.323 320.453 C 100.667 319.917,97.982 312.923,97.971 309.114 C 97.967 307.701,99.295 303.869,100.291 302.420 C 100.658 301.888,101.169 300.801,101.427 300.005 C 101.685 299.210,102.046 298.466,102.230 298.352 C 102.414 298.239,103.042 297.147,103.627 295.927 C 104.211 294.706,105.748 291.791,107.042 289.448 C 108.335 287.106,109.896 284.143,110.511 282.865 C 111.125 281.588,111.865 280.049,112.154 279.446 C 113.174 277.326,112.461 274.953,109.971 272.170 C 107.294 269.180,105.140 266.140,103.986 263.727 C 103.434 262.572,102.246 260.475,101.346 259.067 C 100.446 257.660,99.500 256.166,99.245 255.747 C 98.354 254.288,94.482 246.175,94.470 245.741 C 94.463 245.501,94.202 244.967,93.889 244.553 C 93.576 244.140,93.320 243.566,93.320 243.277 C 93.320 241.773,89.737 235.431,88.887 235.431 C 88.407 235.431,87.510 235.274,86.892 235.083 C 84.104 234.221,79.494 233.840,68.151 233.536 C 57.115 233.240,55.792 233.134,54.254 232.422 C 52.044 231.398,47.147 226.550,46.005 224.255 L 45.111 222.459 45.111 196.902 C 45.111 167.273,44.672 170.299,49.687 165.362 C 53.952 161.163,54.153 161.095,63.311 160.687 C 91.935 159.414,90.455 159.896,92.978 151.016 C 93.555 148.986,98.004 139.670,98.877 138.665 C 99.173 138.324,100.422 136.128,101.652 133.785 C 104.244 128.851,105.344 127.048,106.668 125.561 C 107.896 124.184,110.735 120.581,111.830 119.011 C 112.671 117.804,112.998 115.246,112.362 114.853 C 112.186 114.744,111.511 113.558,110.862 112.216 C 109.428 109.253,107.278 104.975,106.482 103.502 C 106.160 102.907,105.181 101.113,104.307 99.516 C 97.633 87.321,97.341 86.271,98.939 80.189 C 100.386 74.677,103.587 71.163,109.197 68.925 C 109.729 68.712,110.426 68.371,110.745 68.167 C 111.065 67.963,112.430 67.162,113.778 66.388 C 115.127 65.613,116.695 64.501,117.263 63.917 C 117.831 63.332,119.429 62.205,120.813 61.412 C 122.197 60.619,124.114 59.468,125.073 58.854 C 128.666 56.552,129.721 55.955,136.136 52.594 C 138.707 51.247,141.888 49.576,143.205 48.880 C 147.297 46.718,150.928 46.642,155.787 48.616 M194.111 103.812 C 187.852 104.263,179.258 106.064,173.475 108.137 C 167.557 110.259,166.713 110.584,165.537 111.195 C 164.898 111.527,163.889 111.915,163.295 112.058 C 162.650 112.212,162.320 112.488,162.476 112.741 C 162.842 113.332,167.229 112.840,168.863 112.025 C 170.488 111.215,185.695 111.108,188.577 111.887 C 189.535 112.146,191.652 112.592,193.281 112.879 C 194.910 113.166,196.566 113.572,196.960 113.782 C 197.758 114.207,201.969 115.617,204.070 116.163 C 205.974 116.657,213.525 120.034,213.682 120.461 C 213.753 120.655,214.034 120.813,214.306 120.813 C 215.641 120.813,226.282 127.434,229.394 130.201 C 230.653 131.320,233.267 133.498,235.203 135.040 C 237.138 136.582,239.419 138.453,240.271 139.197 C 241.123 139.942,242.318 140.945,242.927 141.427 C 245.637 143.575,252.155 149.558,254.985 152.499 C 259.020 156.691,259.663 156.627,259.283 152.075 C 259.142 150.381,258.760 148.361,258.435 147.586 C 258.111 146.810,257.604 144.608,257.310 142.691 C 257.016 140.774,256.406 138.161,255.955 136.883 C 255.503 135.605,254.521 132.120,253.772 129.138 C 253.023 126.157,251.920 122.585,251.321 121.200 C 250.722 119.816,250.112 118.287,249.966 117.803 C 249.537 116.383,247.101 114.301,244.364 113.015 C 242.965 112.358,241.186 111.491,240.412 111.089 C 239.638 110.687,238.764 110.358,238.470 110.358 C 238.176 110.358,237.286 110.010,236.491 109.584 C 235.697 109.158,234.862 108.809,234.636 108.809 C 234.411 108.809,233.452 108.456,232.505 108.025 C 231.559 107.594,230.218 107.145,229.526 107.028 C 228.833 106.911,227.657 106.578,226.912 106.289 C 225.479 105.734,218.092 104.440,212.595 103.781 C 208.870 103.335,200.534 103.349,194.111 103.812 M149.855 133.557 C 148.045 133.706,145.916 134.124,145.124 134.485 C 144.332 134.845,143.236 135.140,142.688 135.140 C 142.140 135.140,141.009 135.489,140.174 135.915 C 139.339 136.341,138.310 136.689,137.887 136.689 C 137.464 136.689,136.281 137.127,135.258 137.661 C 133.335 138.666,133.185 138.756,130.824 140.322 C 130.047 140.837,129.041 141.376,128.587 141.520 C 128.134 141.664,127.464 142.248,127.099 142.817 C 126.734 143.387,125.869 144.605,125.177 145.524 C 124.484 146.443,123.236 148.534,122.403 150.170 C 121.571 151.807,120.262 154.356,119.496 155.835 C 118.730 157.313,118.103 158.729,118.103 158.982 C 118.103 159.234,117.852 159.648,117.547 159.902 C 117.241 160.156,116.869 160.918,116.721 161.595 C 116.572 162.272,116.125 163.434,115.728 164.176 C 115.330 164.919,115.005 165.842,115.005 166.228 C 115.005 166.615,114.750 167.423,114.439 168.024 C 114.128 168.626,113.611 170.379,113.290 171.920 C 112.968 173.462,112.522 174.944,112.298 175.214 C 111.704 175.930,111.310 181.819,111.835 182.143 C 112.066 182.286,112.463 182.006,112.716 181.521 C 113.286 180.428,113.571 180.096,116.659 176.928 C 119.127 174.396,122.852 172.203,125.636 171.641 C 126.266 171.514,127.224 171.179,127.766 170.896 C 130.429 169.507,141.182 170.440,148.500 172.696 C 149.777 173.090,151.433 173.532,152.178 173.678 C 152.924 173.825,154.056 174.171,154.695 174.449 C 155.334 174.726,157.512 175.512,159.534 176.196 C 161.557 176.879,163.556 177.679,163.977 177.974 C 164.397 178.268,165.071 178.509,165.474 178.509 C 165.877 178.509,166.840 178.842,167.614 179.250 C 168.389 179.657,173.117 182.011,178.122 184.482 C 183.127 186.952,188.616 189.752,190.319 190.705 C 192.023 191.657,194.533 192.984,195.898 193.653 C 197.262 194.322,199.175 195.478,200.149 196.221 C 201.123 196.965,203.365 198.250,205.131 199.077 C 206.897 199.905,209.079 201.052,209.979 201.628 C 210.880 202.203,212.793 203.265,214.230 203.989 C 215.668 204.712,216.844 205.447,216.844 205.623 C 216.844 205.798,217.498 206.152,218.296 206.408 C 219.095 206.664,220.010 207.085,220.329 207.342 C 220.649 207.600,221.476 208.035,222.168 208.308 C 222.861 208.582,223.427 208.932,223.427 209.085 C 223.427 209.239,224.124 209.573,224.976 209.828 C 225.828 210.084,226.525 210.433,226.525 210.605 C 226.525 210.778,227.178 211.203,227.977 211.551 C 228.775 211.898,231.258 213.143,233.495 214.318 C 235.731 215.492,237.844 216.453,238.191 216.455 C 238.537 216.456,239.014 216.690,239.251 216.975 C 239.487 217.260,240.649 217.725,241.832 218.009 C 244.336 218.610,244.438 218.549,246.089 215.489 C 246.663 214.424,247.602 212.943,248.176 212.197 C 249.185 210.887,251.514 206.851,252.870 204.066 C 253.232 203.320,253.652 202.032,253.801 201.202 C 253.951 200.372,254.300 199.327,254.577 198.879 C 254.854 198.430,255.376 196.844,255.736 195.353 C 256.096 193.863,256.802 191.936,257.306 191.073 L 258.221 189.502 257.216 188.219 C 256.664 187.512,254.890 185.888,253.275 184.608 C 251.660 183.328,249.167 181.214,247.734 179.911 C 246.302 178.608,243.202 176.060,240.847 174.250 C 238.492 172.439,234.314 169.172,231.564 166.989 C 228.813 164.806,226.458 163.020,226.331 163.020 C 226.084 163.020,223.951 161.612,217.927 157.471 C 215.860 156.051,214.040 154.889,213.882 154.889 C 213.589 154.889,212.916 154.470,208.132 151.314 C 206.641 150.330,204.942 149.406,204.356 149.261 C 203.771 149.115,203.291 148.860,203.291 148.693 C 203.291 148.526,202.812 148.272,202.227 148.128 C 201.641 147.984,200.726 147.579,200.194 147.228 C 199.661 146.877,198.093 146.016,196.709 145.314 C 195.324 144.613,193.930 143.879,193.611 143.683 C 192.978 143.295,190.283 142.109,188.287 141.340 C 187.594 141.073,187.028 140.726,187.028 140.569 C 187.028 140.412,185.852 139.899,184.414 139.429 C 182.977 138.959,180.842 138.175,179.671 137.688 C 177.475 136.773,173.836 135.742,170.738 135.156 C 169.765 134.972,168.331 134.556,167.553 134.230 C 165.887 133.534,155.098 133.124,149.855 133.557 M110.612 183.686 C 110.452 184.296,110.412 184.888,110.524 184.999 C 110.836 185.311,111.217 184.064,111.051 183.275 C 110.942 182.759,110.827 182.867,110.612 183.686 M122.632 217.785 C 122.248 218.076,121.307 218.432,120.541 218.576 C 119.199 218.828,116.941 220.624,116.941 221.439 C 116.941 221.656,116.617 222.062,116.222 222.340 C 114.093 223.838,114.439 226.740,117.529 233.301 C 117.830 233.940,118.186 234.935,118.321 235.512 C 118.456 236.089,118.801 236.756,119.089 236.995 C 119.377 237.234,119.806 238.016,120.043 238.734 C 120.456 239.988,122.677 241.908,125.073 243.082 C 125.605 243.343,126.302 243.715,126.621 243.908 C 127.842 244.645,131.357 246.273,131.729 246.273 C 131.944 246.273,132.668 246.521,133.339 246.824 C 135.429 247.768,145.495 250.522,149.609 251.277 C 158.590 252.923,158.717 252.932,169.603 252.724 C 184.991 252.429,191.877 251.464,199.032 248.602 C 199.990 248.218,201.559 247.779,202.517 247.626 C 203.475 247.473,204.479 247.170,204.747 246.953 C 205.016 246.736,206.051 246.406,207.048 246.220 C 208.045 246.034,209.219 245.563,209.658 245.173 C 210.555 244.376,214.156 242.788,215.067 242.788 C 215.566 242.788,216.844 240.992,216.844 240.290 C 216.844 240.173,216.165 240.077,215.336 240.077 C 214.507 240.077,212.721 239.741,211.367 239.331 C 210.014 238.920,207.271 238.391,205.272 238.155 C 203.274 237.919,201.357 237.586,201.013 237.416 C 200.669 237.245,199.388 236.891,198.167 236.629 C 196.946 236.367,195.847 235.990,195.724 235.792 C 195.602 235.593,194.929 235.431,194.230 235.431 C 193.531 235.431,192.104 235.158,191.059 234.825 C 190.013 234.492,188.287 233.983,187.222 233.693 C 180.839 231.960,179.767 231.637,178.966 231.209 C 178.480 230.948,176.828 230.405,175.295 230.001 C 173.762 229.597,169.109 228.115,164.956 226.707 C 160.803 225.300,156.613 223.924,155.645 223.650 C 154.677 223.376,153.544 222.972,153.128 222.753 C 152.712 222.534,151.588 222.229,150.629 222.076 C 149.671 221.922,148.364 221.486,147.725 221.107 C 147.086 220.728,145.518 220.294,144.240 220.143 C 142.962 219.991,141.705 219.694,141.447 219.482 C 141.188 219.269,139.676 218.934,138.086 218.737 C 136.496 218.540,134.464 218.120,133.570 217.805 C 131.407 217.042,123.631 217.028,122.632 217.785 " stroke="none" fill="#fbfbfb" fill-rule="evenodd"></path><path id="path3" d="M147.049 47.314 C 146.251 47.480,144.521 48.185,143.205 48.880 C 141.888 49.576,138.707 51.247,136.136 52.594 C 129.721 55.955,128.666 56.552,125.073 58.854 C 124.114 59.468,122.197 60.619,120.813 61.412 C 119.429 62.205,117.831 63.332,117.263 63.917 C 116.695 64.501,115.127 65.613,113.778 66.388 C 112.430 67.162,111.065 67.963,110.745 68.167 C 110.426 68.371,109.729 68.712,109.197 68.925 C 107.692 69.525,103.713 72.135,102.375 73.400 C 98.939 76.647,97.288 83.480,98.797 88.206 C 99.580 90.659,100.555 92.660,104.307 99.516 C 105.181 101.113,106.160 102.907,106.482 103.502 C 107.278 104.975,109.428 109.253,110.862 112.216 C 111.511 113.558,112.186 114.744,112.362 114.853 C 112.998 115.246,112.671 117.804,111.830 119.011 C 110.735 120.581,107.896 124.184,106.668 125.561 C 105.344 127.048,104.244 128.851,101.652 133.785 C 100.422 136.128,99.173 138.324,98.877 138.665 C 98.004 139.670,93.555 148.986,92.978 151.016 C 90.455 159.896,91.935 159.414,63.311 160.687 C 54.153 161.095,53.952 161.163,49.687 165.362 C 44.672 170.299,45.111 167.273,45.111 196.902 L 45.111 222.459 46.005 224.255 C 47.147 226.550,52.044 231.398,54.254 232.422 C 55.792 233.134,57.115 233.240,68.151 233.536 C 79.494 233.840,84.104 234.221,86.892 235.083 C 87.510 235.274,88.407 235.431,88.887 235.431 C 89.737 235.431,93.320 241.773,93.320 243.277 C 93.320 243.566,93.576 244.140,93.889 244.553 C 94.202 244.967,94.463 245.501,94.470 245.741 C 94.482 246.175,98.354 254.288,99.245 255.747 C 99.500 256.166,100.446 257.660,101.346 259.067 C 102.246 260.475,103.434 262.572,103.986 263.727 C 105.140 266.140,107.294 269.180,109.971 272.170 C 112.461 274.953,113.174 277.326,112.154 279.446 C 111.865 280.049,111.125 281.588,110.511 282.865 C 109.896 284.143,108.335 287.106,107.042 289.448 C 105.748 291.791,104.211 294.706,103.627 295.927 C 103.042 297.147,102.414 298.239,102.230 298.352 C 102.046 298.466,101.685 299.210,101.427 300.005 C 101.169 300.801,100.658 301.888,100.291 302.420 C 99.295 303.869,97.967 307.701,97.971 309.114 C 97.982 312.923,100.667 319.917,102.323 320.453 C 102.696 320.573,103.001 320.818,103.001 320.996 C 103.001 321.174,103.829 321.814,104.840 322.417 C 105.852 323.020,106.965 323.690,107.313 323.906 C 107.662 324.122,109.467 325.169,111.325 326.234 C 113.183 327.299,115.736 329.003,116.998 330.020 C 118.964 331.603,121.946 333.437,130.614 338.391 C 134.096 340.380,137.263 341.917,137.882 341.917 C 138.239 341.917,138.747 342.178,139.013 342.498 C 139.278 342.817,139.713 343.078,139.981 343.078 C 140.248 343.078,140.692 343.351,140.969 343.683 C 143.172 346.338,150.941 347.398,155.082 345.607 C 159.931 343.512,161.201 342.414,163.617 338.238 C 164.233 337.173,164.960 336.072,165.234 335.790 C 165.507 335.509,165.731 335.130,165.731 334.949 C 165.731 334.767,166.161 334.107,166.688 333.482 C 167.214 332.857,168.112 331.406,168.684 330.258 C 169.257 329.110,169.845 328.083,169.991 327.977 C 170.138 327.870,170.503 327.325,170.802 326.765 C 171.101 326.206,171.999 324.765,172.798 323.563 C 173.596 322.362,174.250 321.299,174.250 321.200 C 174.250 320.855,176.894 316.931,177.695 316.088 C 179.026 314.687,187.839 314.813,193.417 316.313 C 195.808 316.955,211.588 316.865,213.792 316.196 C 215.787 315.591,225.529 314.962,227.040 315.341 C 227.589 315.479,228.392 316.214,228.892 317.037 C 229.377 317.836,230.001 318.629,230.279 318.799 C 230.557 318.970,230.784 319.283,230.784 319.496 C 230.784 319.709,231.444 320.876,232.250 322.090 C 233.056 323.305,234.303 325.344,235.020 326.621 C 235.738 327.899,236.539 329.206,236.800 329.526 C 237.062 329.845,237.396 330.501,237.543 330.984 C 237.690 331.467,238.934 333.558,240.307 335.631 C 241.681 337.704,243.019 339.745,243.280 340.167 C 244.299 341.808,247.523 344.585,248.712 344.846 C 249.394 344.995,250.559 345.443,251.301 345.841 C 254.517 347.563,264.472 346.033,264.472 343.816 C 264.472 343.623,264.797 343.466,265.195 343.466 C 265.592 343.466,266.346 343.128,266.871 342.715 C 267.396 342.302,268.334 341.843,268.956 341.693 C 269.578 341.544,271.108 340.831,272.355 340.108 C 273.602 339.386,275.171 338.542,275.840 338.234 C 276.509 337.925,277.318 337.504,277.638 337.297 C 277.957 337.090,280.292 335.686,282.827 334.177 C 285.361 332.667,287.975 331.001,288.635 330.473 C 290.388 329.072,290.484 329.009,291.965 328.259 C 292.711 327.882,293.966 327.185,294.755 326.710 C 295.544 326.235,297.608 325.005,299.341 323.976 C 304.620 320.843,305.903 319.148,307.331 313.426 C 308.666 308.075,307.066 303.051,300.310 291.384 C 299.817 290.532,298.771 288.616,297.987 287.125 C 297.202 285.634,295.968 283.456,295.246 282.285 C 293.043 278.716,293.265 276.425,296.155 272.864 C 299.411 268.853,301.604 265.793,302.033 264.666 C 302.239 264.125,303.280 262.389,304.348 260.806 C 306.207 258.051,309.190 252.505,311.661 247.211 C 313.324 243.646,313.650 242.836,313.650 242.260 C 313.650 241.910,313.998 240.973,314.424 240.179 C 314.850 239.384,315.198 238.403,315.198 237.998 C 315.198 235.271,319.440 234.380,334.753 233.887 C 350.361 233.385,350.654 233.349,353.394 231.558 C 356.095 229.793,358.399 227.423,359.890 224.876 L 360.968 223.033 360.916 197.395 L 360.863 171.757 359.812 169.677 C 358.293 166.673,354.342 162.918,351.412 161.693 C 349.560 160.920,348.907 160.864,332.817 160.101 C 316.090 159.308,315.733 159.214,315.020 155.415 C 314.783 154.149,313.963 152.180,311.382 146.676 C 310.713 145.248,310.165 143.991,310.165 143.884 C 310.165 143.778,308.918 141.461,307.395 138.738 C 305.871 136.014,303.905 132.478,303.026 130.881 C 301.118 127.414,298.693 123.854,296.928 121.928 C 293.734 118.441,293.358 117.696,293.665 115.459 C 293.797 114.495,294.145 113.432,294.438 113.097 C 294.731 112.762,295.099 112.052,295.255 111.520 C 295.411 110.987,295.864 110.196,296.261 109.761 C 297.135 108.803,306.475 90.329,307.283 87.960 C 308.399 84.686,306.581 76.351,304.203 73.841 C 302.739 72.296,299.326 70.001,296.893 68.924 C 295.904 68.487,295.000 67.975,294.883 67.786 C 294.767 67.598,293.862 67.052,292.873 66.573 C 291.884 66.094,290.535 65.252,289.875 64.700 C 288.496 63.550,286.263 61.955,286.030 61.955 C 285.943 61.955,284.703 61.171,283.274 60.213 C 281.844 59.255,280.485 58.470,280.252 58.470 C 280.019 58.470,279.553 58.221,279.217 57.917 C 278.417 57.193,270.530 52.792,269.407 52.443 C 268.929 52.294,266.949 51.258,265.006 50.141 C 259.319 46.868,255.184 46.343,250.844 48.340 C 249.844 48.801,248.799 49.183,248.521 49.191 C 247.663 49.215,242.401 54.623,242.401 55.481 C 242.401 55.601,241.617 56.869,240.658 58.298 C 239.700 59.727,238.916 61.135,238.916 61.426 C 238.916 61.717,238.753 61.955,238.553 61.955 C 238.354 61.955,237.641 63.045,236.968 64.376 C 236.295 65.707,235.531 67.057,235.270 67.377 C 234.860 67.879,232.267 72.088,230.916 74.443 C 230.669 74.873,230.320 75.333,230.139 75.464 C 229.959 75.595,229.341 76.333,228.766 77.105 C 227.440 78.886,226.504 79.055,221.899 78.342 C 214.562 77.206,213.038 77.097,204.647 77.108 C 196.054 77.119,194.012 77.255,184.956 78.416 C 178.418 79.255,177.352 78.706,174.230 72.894 C 173.279 71.125,170.822 67.325,169.969 66.303 C 169.742 66.033,169.362 65.251,169.123 64.567 C 168.885 63.883,168.540 63.146,168.358 62.930 C 168.175 62.713,167.292 61.422,166.394 60.060 C 161.741 52.997,160.625 51.485,159.345 50.509 C 156.437 48.290,150.176 46.664,147.049 47.314 M151.597 49.358 C 155.407 49.841,161.859 53.558,161.859 55.270 C 161.859 55.402,162.614 56.655,163.537 58.055 C 166.540 62.609,167.279 63.900,168.431 66.602 C 168.658 67.135,169.354 68.354,169.976 69.313 C 170.599 70.271,171.674 72.014,172.365 73.185 C 174.413 76.656,176.489 79.213,177.858 79.950 C 179.266 80.709,179.511 80.702,189.739 79.610 C 197.485 78.783,213.283 78.790,218.974 79.623 C 227.904 80.931,228.198 80.858,231.208 76.581 C 234.172 72.370,235.029 71.064,235.037 70.749 C 235.044 70.429,236.459 68.332,237.239 67.487 C 237.488 67.217,237.901 66.341,238.157 65.541 C 238.592 64.179,239.945 61.616,240.459 61.181 C 240.890 60.816,243.175 57.176,243.175 56.855 C 243.175 56.679,243.480 56.211,243.853 55.815 C 244.226 55.420,245.140 54.293,245.886 53.311 C 246.631 52.329,247.590 51.412,248.015 51.273 C 248.441 51.134,249.554 50.678,250.489 50.259 C 253.708 48.814,260.364 48.961,262.149 50.516 C 262.469 50.794,263.166 51.149,263.698 51.306 C 264.230 51.462,265.015 51.889,265.440 52.256 C 265.866 52.622,267.100 53.291,268.182 53.742 C 269.264 54.194,271.268 55.177,272.635 55.928 C 274.002 56.679,275.644 57.531,276.283 57.822 C 276.922 58.113,277.683 58.639,277.976 58.991 C 278.268 59.344,278.763 59.632,279.076 59.632 C 279.389 59.632,280.089 59.981,280.630 60.407 C 281.172 60.833,281.933 61.181,282.323 61.181 C 282.713 61.181,283.208 61.509,283.422 61.911 C 283.637 62.312,284.258 62.752,284.801 62.889 C 285.345 63.025,286.090 63.401,286.457 63.725 C 287.898 64.992,291.539 67.764,291.763 67.764 C 292.191 67.764,298.335 71.399,299.105 72.107 C 299.518 72.487,300.041 72.802,300.267 72.808 C 303.774 72.892,307.608 84.618,305.375 88.429 C 304.815 89.385,304.356 90.426,304.356 90.743 C 304.356 91.060,304.209 91.378,304.028 91.449 C 303.848 91.520,302.890 93.233,301.900 95.257 C 300.910 97.280,299.580 99.894,298.945 101.065 C 298.310 102.236,297.783 103.456,297.773 103.775 C 297.764 104.095,297.416 104.792,296.999 105.324 C 296.583 105.857,296.238 106.587,296.233 106.947 C 296.228 107.307,296.050 107.710,295.837 107.842 C 295.297 108.175,293.127 112.620,293.124 113.399 C 293.123 113.750,292.776 114.560,292.352 115.198 C 291.338 116.731,292.028 119.138,293.848 120.417 C 294.006 120.529,294.514 121.243,294.976 122.004 C 295.439 122.766,296.227 123.831,296.727 124.371 C 297.227 124.911,298.127 126.204,298.727 127.245 C 299.327 128.287,300.047 129.406,300.329 129.733 C 300.610 130.060,301.390 131.367,302.062 132.637 C 302.733 133.907,303.504 135.208,303.774 135.528 C 304.044 135.847,304.384 136.499,304.529 136.977 C 304.675 137.455,305.012 138.065,305.278 138.333 C 305.543 138.600,306.333 139.952,307.032 141.336 C 307.730 142.720,308.528 144.114,308.803 144.434 C 309.079 144.753,309.422 145.569,309.566 146.246 C 309.709 146.924,310.059 147.670,310.343 147.906 C 310.626 148.141,310.968 148.920,311.102 149.636 C 311.237 150.352,311.592 151.142,311.892 151.392 C 312.193 151.641,312.555 152.399,312.698 153.076 C 312.842 153.754,313.288 154.851,313.691 155.515 C 314.094 156.179,314.430 156.963,314.437 157.258 C 314.454 157.954,315.473 159.101,317.148 160.310 L 318.490 161.278 332.224 161.398 C 339.778 161.464,346.142 161.669,346.365 161.855 C 346.589 162.040,347.941 162.396,349.371 162.645 C 351.994 163.102,353.560 164.298,358.005 169.240 C 359.129 170.489,359.351 175.521,359.326 199.137 C 359.298 226.216,359.589 224.011,355.509 228.035 C 351.575 231.915,347.755 232.678,332.043 232.724 C 319.253 232.762,316.194 233.621,314.142 237.754 C 313.455 239.138,312.889 240.729,312.884 241.289 C 312.879 241.848,312.614 242.523,312.294 242.788 C 311.975 243.053,311.713 243.468,311.713 243.710 C 311.713 244.574,305.099 257.416,303.912 258.858 C 303.338 259.555,300.483 264.570,299.834 266.021 C 299.692 266.341,298.821 267.591,297.900 268.799 C 296.978 270.008,296.225 271.102,296.225 271.231 C 296.225 271.360,295.636 271.983,294.917 272.614 C 292.341 274.876,292.040 278.459,294.100 282.326 C 294.712 283.475,296.052 285.983,297.078 287.899 C 302.476 297.983,306.435 306.527,306.597 308.437 C 307.059 313.905,302.168 322.943,298.745 322.943 C 298.655 322.943,297.660 323.489,296.532 324.157 C 295.405 324.825,293.349 325.983,291.965 326.732 C 290.581 327.480,288.751 328.652,287.899 329.337 C 287.047 330.021,284.782 331.502,282.865 332.627 C 280.949 333.752,278.945 334.951,278.412 335.292 C 277.880 335.633,277.009 336.132,276.476 336.401 C 275.944 336.669,274.811 337.315,273.959 337.835 C 273.107 338.356,271.975 338.983,271.442 339.229 C 270.910 339.475,270.213 339.832,269.894 340.023 C 269.574 340.214,268.877 340.543,268.345 340.756 C 267.812 340.968,267.115 341.314,266.796 341.524 C 266.476 341.734,265.605 342.234,264.860 342.634 C 264.114 343.035,262.546 343.906,261.375 344.569 C 258.754 346.053,255.745 346.202,252.368 345.015 C 251.156 344.589,249.994 344.240,249.785 344.240 C 248.379 344.240,245.466 341.446,243.126 337.851 C 239.296 331.970,238.595 330.831,238.000 329.526 C 237.660 328.780,237.216 327.909,237.013 327.590 C 236.809 327.270,235.648 325.358,234.432 323.340 C 228.496 313.491,227.110 312.587,220.523 314.271 C 214.920 315.703,189.829 315.393,186.126 313.846 C 181.817 312.045,176.476 313.629,175.022 317.139 C 174.759 317.775,174.407 318.296,174.241 318.296 C 173.929 318.296,173.053 319.666,171.040 323.299 C 170.401 324.454,169.480 325.983,168.995 326.698 C 168.510 327.414,167.739 328.734,167.281 329.633 C 166.824 330.533,165.941 332.052,165.319 333.011 C 164.697 333.969,163.995 335.232,163.760 335.818 C 163.524 336.404,163.171 336.883,162.974 336.883 C 162.777 336.883,162.412 337.362,162.162 337.948 C 161.129 340.370,156.620 344.111,154.409 344.381 C 153.288 344.518,151.605 344.899,150.668 345.228 C 148.860 345.862,147.134 345.700,145.800 344.771 C 145.380 344.479,144.633 344.240,144.142 344.240 C 143.650 344.240,143.150 343.984,143.030 343.672 C 142.776 343.012,139.974 341.370,138.447 340.987 C 137.870 340.842,137.031 340.382,136.583 339.965 C 136.135 339.548,135.462 339.206,135.087 339.206 C 134.711 339.206,134.265 338.982,134.095 338.708 C 133.924 338.434,132.609 337.615,131.171 336.887 C 129.734 336.158,128.558 335.445,128.558 335.302 C 128.558 335.158,127.991 334.807,127.299 334.521 C 126.607 334.236,125.047 333.344,123.833 332.538 C 122.619 331.733,121.478 331.075,121.298 331.075 C 120.927 331.075,119.571 330.095,118.350 328.945 C 117.169 327.832,115.296 326.599,113.585 325.809 C 112.768 325.432,111.182 324.546,110.060 323.839 C 108.938 323.133,107.849 322.556,107.640 322.556 C 107.431 322.556,107.260 322.403,107.260 322.215 C 107.260 322.028,106.701 321.643,106.017 321.360 C 104.617 320.780,101.452 317.742,101.452 316.978 C 101.452 316.703,101.194 315.961,100.877 315.327 C 100.514 314.599,100.265 312.763,100.200 310.331 L 100.097 306.486 103.034 300.641 C 104.649 297.427,106.261 294.382,106.615 293.875 C 106.970 293.369,107.260 292.568,107.260 292.095 C 107.260 291.623,107.421 291.137,107.616 291.017 C 108.173 290.673,110.745 285.909,110.745 285.223 C 110.745 284.885,110.906 284.608,111.103 284.608 C 111.299 284.608,111.672 283.955,111.932 283.156 C 112.192 282.357,112.641 281.360,112.930 280.940 C 113.828 279.635,113.643 274.280,112.682 273.766 C 112.256 273.538,111.907 273.140,111.907 272.881 C 111.907 272.622,110.540 270.659,108.870 268.518 C 107.200 266.377,105.726 264.199,105.595 263.678 C 105.282 262.435,101.677 255.967,101.073 255.566 C 100.913 255.460,100.651 254.937,100.490 254.405 C 100.330 253.872,99.979 253.175,99.710 252.856 C 99.441 252.536,99.089 251.839,98.928 251.307 C 98.767 250.774,98.323 249.939,97.941 249.449 C 97.559 248.960,97.136 248.060,97.002 247.449 C 96.868 246.838,96.529 246.250,96.250 246.143 C 95.970 246.035,95.628 245.341,95.489 244.600 C 95.350 243.859,94.998 243.055,94.706 242.813 C 94.414 242.571,94.061 241.761,93.921 241.012 C 93.670 239.676,92.598 237.416,91.240 235.358 C 90.834 234.744,90.050 234.219,89.323 234.075 C 88.646 233.942,87.570 233.588,86.931 233.290 C 86.083 232.893,82.586 232.642,73.959 232.356 C 61.699 231.949,56.274 231.531,54.568 230.859 C 53.073 230.271,48.643 225.801,47.587 223.814 L 46.660 222.072 46.552 197.330 L 46.444 172.588 47.379 170.805 C 47.893 169.825,49.612 167.683,51.199 166.045 L 54.085 163.068 58.310 162.398 C 61.348 161.917,66.036 161.665,74.984 161.503 C 86.101 161.302,87.512 161.205,88.180 160.600 C 88.592 160.227,89.119 159.923,89.352 159.923 C 90.274 159.923,92.081 157.943,92.319 156.672 C 92.455 155.947,92.802 155.158,93.090 154.919 C 93.379 154.680,93.726 153.926,93.862 153.244 C 94.240 151.356,98.039 143.460,101.269 137.851 C 102.189 136.254,103.384 134.076,103.926 133.011 C 105.241 130.424,107.213 127.425,108.517 126.029 C 109.102 125.403,110.235 123.929,111.034 122.755 C 111.834 121.580,112.616 120.562,112.771 120.493 C 113.799 120.033,114.009 113.843,113.018 113.231 C 112.522 112.924,110.857 109.426,110.557 108.059 C 110.424 107.451,109.993 106.663,109.600 106.307 C 109.207 105.952,108.772 105.053,108.633 104.311 C 108.493 103.568,108.128 102.864,107.820 102.746 C 107.512 102.627,107.260 102.314,107.260 102.050 C 107.260 101.497,102.004 91.100,101.282 90.223 C 100.300 89.030,99.851 85.486,100.298 82.445 C 101.247 75.990,102.817 74.046,110.165 70.236 C 111.655 69.463,112.933 68.679,113.003 68.495 C 113.073 68.311,113.857 67.831,114.745 67.428 C 115.633 67.025,117.205 65.934,118.238 65.003 C 120.077 63.346,121.182 62.633,123.911 61.346 C 124.656 60.994,125.353 60.576,125.460 60.417 C 125.566 60.258,126.263 59.817,127.009 59.439 C 127.754 59.060,128.451 58.640,128.558 58.505 C 128.664 58.371,129.187 58.048,129.719 57.788 C 130.737 57.290,131.364 56.919,133.612 55.479 C 134.369 54.995,135.260 54.598,135.593 54.598 C 135.926 54.598,136.613 54.282,137.121 53.895 C 137.629 53.507,138.654 52.951,139.400 52.658 C 140.145 52.365,140.842 52.028,140.949 51.910 C 141.938 50.808,147.750 48.724,149.080 48.994 C 149.400 49.059,150.532 49.223,151.597 49.358 M195.311 101.838 C 193.584 101.989,191.967 102.239,191.717 102.394 C 191.468 102.548,189.655 102.827,187.689 103.013 C 185.723 103.199,183.492 103.611,182.732 103.928 C 181.972 104.246,180.406 104.623,179.252 104.766 C 178.098 104.909,176.802 105.245,176.371 105.513 C 175.940 105.781,174.848 106.126,173.943 106.279 C 173.039 106.432,172.058 106.797,171.763 107.092 C 171.469 107.386,170.502 107.790,169.614 107.989 C 168.725 108.189,167.706 108.610,167.349 108.925 C 166.991 109.240,166.145 109.615,165.467 109.759 C 164.790 109.903,164.043 110.253,163.808 110.536 C 163.572 110.820,162.781 111.164,162.049 111.301 C 161.317 111.439,160.583 111.773,160.417 112.044 C 160.252 112.315,159.506 112.726,158.761 112.957 L 157.406 113.377 158.689 113.416 C 159.908 113.454,162.094 112.729,165.537 111.145 C 166.389 110.753,167.609 110.253,168.248 110.034 C 168.887 109.814,170.803 109.095,172.507 108.435 C 175.630 107.226,177.014 106.861,185.040 105.130 C 192.243 103.576,205.477 102.929,212.595 103.781 C 218.092 104.440,225.479 105.734,226.912 106.289 C 227.657 106.578,228.833 106.911,229.526 107.028 C 230.218 107.145,231.559 107.594,232.505 108.025 C 233.452 108.456,234.411 108.809,234.636 108.809 C 234.862 108.809,235.697 109.158,236.491 109.584 C 237.286 110.010,238.176 110.358,238.470 110.358 C 238.764 110.358,239.638 110.687,240.412 111.089 C 241.186 111.491,242.965 112.358,244.364 113.015 C 247.101 114.301,249.537 116.383,249.966 117.803 C 250.112 118.287,250.722 119.816,251.321 121.200 C 251.920 122.585,253.023 126.157,253.772 129.138 C 254.521 132.120,255.503 135.605,255.955 136.883 C 256.406 138.161,257.016 140.774,257.310 142.691 C 257.604 144.608,258.099 146.786,258.410 147.531 C 258.720 148.277,259.102 150.086,259.257 151.551 C 259.426 153.149,259.791 154.476,260.167 154.867 C 260.512 155.225,261.630 156.697,262.653 158.138 C 264.047 160.102,264.940 160.947,266.220 161.514 C 267.160 161.929,269.111 163.408,270.557 164.800 C 272.002 166.192,274.230 167.946,275.508 168.698 C 276.786 169.450,278.183 170.615,278.611 171.286 C 279.290 172.349,279.641 172.523,281.319 172.629 C 283.218 172.749,284.608 173.523,284.608 174.460 C 284.608 175.853,293.096 175.496,293.170 174.100 C 293.289 171.815,292.236 167.788,290.757 164.880 C 290.357 164.092,290.029 163.183,290.029 162.860 C 290.029 162.104,286.279 154.235,285.768 153.920 C 285.556 153.789,285.382 153.367,285.382 152.982 C 285.382 152.597,285.054 151.864,284.652 151.353 C 284.011 150.539,282.943 148.652,278.793 141.003 C 277.187 138.043,266.830 127.046,264.085 125.386 C 263.340 124.935,262.033 123.915,261.181 123.118 C 260.329 122.322,258.151 120.682,256.341 119.475 C 254.530 118.268,252.527 116.795,251.888 116.202 C 251.249 115.610,250.160 114.832,249.468 114.474 C 248.775 114.116,248.209 113.667,248.209 113.477 C 248.209 113.286,247.686 113.015,247.047 112.875 C 246.409 112.735,245.886 112.488,245.886 112.326 C 245.886 111.934,244.093 111.133,243.216 111.133 C 242.833 111.133,242.117 110.784,241.626 110.358 C 241.135 109.932,240.435 109.584,240.070 109.584 C 239.706 109.584,238.992 109.260,238.484 108.865 C 237.976 108.470,236.925 108.030,236.147 107.887 C 235.370 107.744,234.539 107.392,234.301 107.106 C 234.063 106.819,233.019 106.471,231.980 106.333 C 230.941 106.196,229.887 105.836,229.636 105.534 C 229.386 105.233,228.191 104.866,226.982 104.719 C 225.772 104.572,224.277 104.194,223.660 103.880 C 223.043 103.566,220.836 103.161,218.756 102.981 C 216.677 102.800,214.329 102.382,213.539 102.052 C 211.986 101.403,201.664 101.282,195.311 101.838 M128.809 139.971 C 128.684 140.296,128.235 140.561,127.811 140.561 C 127.386 140.561,126.859 140.779,126.640 141.045 C 122.232 146.382,120.521 149.363,116.470 158.761 C 116.057 159.719,115.478 160.955,115.183 161.507 C 114.888 162.059,114.530 163.278,114.387 164.217 C 114.244 165.156,113.869 166.222,113.552 166.586 C 113.236 166.950,112.888 168.083,112.780 169.103 C 112.672 170.124,112.329 171.250,112.017 171.607 C 111.706 171.964,111.309 173.358,111.135 174.705 C 110.960 176.052,110.540 177.802,110.201 178.594 C 109.834 179.450,109.599 181.019,109.622 182.466 L 109.660 184.898 110.191 183.210 C 110.482 182.282,110.878 181.324,111.070 181.081 C 111.262 180.838,111.542 179.508,111.693 178.126 C 111.843 176.744,112.133 175.412,112.336 175.168 C 112.539 174.923,112.968 173.462,113.290 171.920 C 113.611 170.379,114.128 168.626,114.439 168.024 C 114.750 167.423,115.005 166.615,115.005 166.228 C 115.005 165.842,115.330 164.919,115.728 164.176 C 116.125 163.434,116.572 162.272,116.721 161.595 C 116.869 160.918,117.241 160.156,117.547 159.902 C 117.852 159.648,118.103 159.234,118.103 158.982 C 118.103 158.729,118.730 157.313,119.496 155.835 C 120.262 154.356,121.571 151.807,122.403 150.170 C 123.236 148.534,124.508 146.421,125.230 145.475 C 125.952 144.530,126.748 143.371,127.000 142.901 C 127.252 142.430,128.054 141.796,128.782 141.492 C 130.220 140.891,130.399 140.512,129.571 139.825 C 129.158 139.482,128.983 139.515,128.809 139.971 M257.210 191.202 C 256.762 191.998,256.100 193.867,255.739 195.357 C 255.377 196.846,254.854 198.430,254.577 198.879 C 254.300 199.327,253.951 200.372,253.801 201.202 C 253.652 202.032,253.232 203.320,252.870 204.066 C 251.513 206.853,249.184 210.887,248.175 212.197 C 247.167 213.507,244.724 217.741,244.724 218.178 C 244.724 218.296,245.203 218.395,245.789 218.397 C 247.063 218.402,249.999 219.259,251.626 220.100 C 252.272 220.434,254.511 220.969,256.603 221.290 C 258.695 221.611,261.365 222.151,262.536 222.490 C 264.947 223.189,276.038 223.302,277.275 222.640 C 277.659 222.434,278.385 222.265,278.886 222.265 C 280.553 222.265,287.486 219.877,289.234 218.701 C 290.561 217.807,291.243 217.589,292.211 217.746 C 294.352 218.093,295.481 214.028,296.009 204.066 C 296.150 201.404,296.366 198.616,296.488 197.870 L 296.711 196.515 295.468 197.677 C 294.784 198.316,293.998 199.378,293.721 200.037 C 291.978 204.180,275.568 203.425,270.162 198.953 C 268.926 197.930,267.379 196.817,266.725 196.478 C 266.071 196.140,264.888 195.182,264.096 194.350 C 263.233 193.443,262.298 192.836,261.762 192.836 C 261.217 192.836,260.314 192.236,259.446 191.295 L 258.023 189.755 257.210 191.202 M113.940 224.862 C 112.920 225.058,112.802 226.204,113.650 227.686 C 113.954 228.219,114.209 229.023,114.217 229.473 C 114.224 229.924,114.579 230.736,115.005 231.277 C 115.431 231.819,115.779 232.559,115.779 232.922 C 115.779 233.286,116.101 234.216,116.495 234.991 C 116.888 235.765,117.758 237.575,118.427 239.013 C 119.097 240.450,119.817 241.626,120.029 241.626 C 120.240 241.626,120.872 242.541,121.433 243.659 C 121.994 244.777,123.014 246.389,123.699 247.241 C 124.383 248.093,125.579 249.748,126.354 250.920 C 129.049 254.987,132.265 258.920,134.731 261.164 C 135.678 262.025,136.678 262.991,136.954 263.311 C 137.230 263.630,138.198 264.748,139.105 265.795 C 140.881 267.844,146.491 272.217,147.344 272.217 C 147.630 272.217,148.094 272.435,148.375 272.701 C 149.391 273.661,151.747 275.315,152.101 275.315 C 152.300 275.315,153.575 276.060,154.934 276.971 C 157.998 279.024,161.039 280.736,161.623 280.736 C 161.865 280.736,162.714 281.084,163.509 281.510 C 165.474 282.564,165.731 282.498,165.731 280.939 C 165.731 279.855,165.519 279.484,164.638 279.029 C 163.116 278.242,162.720 276.571,162.401 269.596 L 162.130 263.683 164.221 261.749 C 167.074 259.109,167.882 258.928,175.841 259.145 C 181.581 259.301,183.061 259.473,185.866 260.310 C 191.618 262.025,194.585 262.536,198.795 262.536 C 201.244 262.536,202.959 262.700,203.113 262.947 C 203.933 264.275,204.917 264.375,220.329 264.696 C 239.835 265.103,251.303 264.664,253.104 263.442 C 253.868 262.924,255.346 262.338,256.388 262.140 C 257.430 261.943,258.760 261.434,259.345 261.011 C 261.086 259.748,268.216 258.396,270.952 258.811 C 272.454 259.038,281.897 248.597,281.897 246.709 C 281.897 246.522,282.150 246.158,282.458 245.902 C 282.767 245.646,283.228 244.797,283.483 244.015 C 283.738 243.234,284.269 242.179,284.664 241.671 C 285.763 240.258,285.524 240.005,284.043 241.010 C 283.306 241.510,281.520 242.209,280.074 242.563 C 278.628 242.917,276.137 243.619,274.540 244.123 C 268.610 245.995,268.457 246.011,258.746 245.717 C 253.696 245.564,248.624 245.462,247.474 245.491 C 241.361 245.641,230.196 244.676,228.654 243.863 C 226.966 242.972,226.273 242.890,219.361 242.766 C 214.451 242.677,211.697 243.360,209.658 245.173 C 209.219 245.563,208.045 246.034,207.048 246.220 C 206.051 246.406,205.016 246.736,204.747 246.953 C 204.479 247.170,203.475 247.473,202.517 247.626 C 201.559 247.779,199.990 248.218,199.032 248.602 C 191.877 251.464,184.991 252.429,169.603 252.724 C 158.717 252.932,158.590 252.923,149.609 251.277 C 145.495 250.522,135.429 247.768,133.339 246.824 C 132.668 246.521,131.944 246.273,131.729 246.273 C 131.357 246.273,127.842 244.645,126.621 243.908 C 126.302 243.715,125.605 243.343,125.073 243.082 C 122.677 241.908,120.456 239.988,120.043 238.734 C 119.806 238.016,119.377 237.234,119.089 236.995 C 118.801 236.756,118.456 236.089,118.321 235.512 C 118.186 234.935,117.830 233.940,117.529 233.301 C 115.582 229.166,114.994 227.544,114.939 226.157 C 114.906 225.294,114.863 224.612,114.845 224.641 C 114.826 224.670,114.419 224.770,113.940 224.862 " stroke="none" fill="#c4c4c5" fill-rule="evenodd"></path><path id="path4" d="M172.268 111.468 C 170.381 111.615,168.654 111.958,168.293 112.257 C 167.903 112.580,166.412 112.839,164.466 112.921 C 158.336 113.178,154.127 114.448,154.603 115.897 C 154.832 116.593,157.906 116.696,158.905 116.041 C 159.375 115.733,160.752 115.275,161.964 115.023 C 163.177 114.771,164.259 114.419,164.369 114.241 C 164.480 114.062,165.485 113.803,166.603 113.665 C 167.720 113.528,170.413 113.149,172.586 112.825 C 174.879 112.482,177.804 112.313,179.556 112.423 C 185.474 112.792,191.129 113.534,193.417 114.241 C 194.695 114.636,196.396 115.076,197.197 115.219 C 197.998 115.363,199.298 115.809,200.086 116.210 C 200.874 116.612,201.831 116.941,202.213 116.941 C 202.595 116.941,203.557 117.289,204.352 117.715 C 205.147 118.141,206.003 118.490,206.255 118.490 C 206.507 118.490,207.642 118.942,208.777 119.494 C 215.112 122.574,217.296 123.751,220.116 125.602 C 221.830 126.728,224.496 128.476,226.039 129.487 C 227.581 130.498,229.063 131.622,229.330 131.985 C 229.597 132.349,231.384 133.846,233.301 135.313 C 240.266 140.643,244.991 144.755,251.429 151.085 C 255.040 154.637,258.887 158.166,259.976 158.926 C 261.064 159.687,263.322 161.617,264.992 163.216 C 266.662 164.815,269.014 166.762,270.219 167.542 C 271.424 168.322,272.585 169.148,272.798 169.378 C 273.883 170.552,276.715 172.461,279.380 173.818 C 280.232 174.252,282.044 175.223,283.406 175.977 C 286.860 177.889,290.635 177.785,291.910 175.743 C 292.414 174.936,292.393 174.930,289.914 175.195 C 287.054 175.501,284.608 175.163,284.608 174.460 C 284.608 173.523,283.218 172.749,281.319 172.629 C 279.641 172.523,279.290 172.349,278.611 171.286 C 278.183 170.615,276.786 169.450,275.508 168.698 C 274.230 167.946,272.002 166.192,270.557 164.800 C 269.111 163.408,267.160 161.929,266.220 161.514 C 264.950 160.952,264.036 160.093,262.653 158.163 C 261.630 156.735,260.597 155.294,260.357 154.960 C 259.962 154.410,259.857 154.415,259.264 155.007 C 258.303 155.969,258.261 155.944,254.941 152.469 C 252.173 149.571,245.714 143.636,242.927 141.427 C 242.318 140.945,241.123 139.942,240.271 139.197 C 239.419 138.453,237.138 136.582,235.203 135.040 C 233.267 133.498,230.653 131.320,229.394 130.201 C 226.282 127.434,215.641 120.813,214.306 120.813 C 214.034 120.813,213.753 120.655,213.682 120.461 C 213.525 120.034,205.974 116.657,204.070 116.163 C 201.969 115.617,197.758 114.207,196.960 113.782 C 196.566 113.572,194.910 113.166,193.281 112.879 C 191.652 112.593,189.648 112.184,188.827 111.971 C 186.847 111.456,176.465 111.141,172.268 111.468 M148.112 132.482 C 146.409 132.669,144.405 133.075,143.659 133.385 C 142.914 133.696,141.571 134.135,140.675 134.362 C 139.778 134.589,138.948 134.932,138.829 135.125 C 138.709 135.318,137.645 135.676,136.464 135.921 C 135.283 136.167,134.222 136.614,134.106 136.915 C 133.991 137.217,133.488 137.464,132.989 137.464 C 132.490 137.464,131.612 137.899,131.038 138.432 C 130.463 138.964,129.823 139.400,129.615 139.400 C 129.407 139.400,129.450 139.657,129.711 139.970 C 130.167 140.520,132.112 139.941,132.817 139.046 C 133.229 138.524,137.187 136.689,137.902 136.689 C 138.317 136.689,139.339 136.341,140.174 135.915 C 141.009 135.489,142.178 135.137,142.773 135.132 C 143.367 135.127,144.637 134.756,145.595 134.306 C 148.024 133.167,164.935 133.048,167.446 134.153 C 168.283 134.521,169.765 134.972,170.738 135.156 C 173.836 135.742,177.475 136.773,179.671 137.688 C 180.842 138.175,182.977 138.959,184.414 139.429 C 185.852 139.899,187.028 140.412,187.028 140.569 C 187.028 140.726,187.594 141.073,188.287 141.340 C 190.283 142.109,192.978 143.295,193.611 143.683 C 193.930 143.879,195.324 144.613,196.709 145.314 C 198.093 146.016,199.661 146.877,200.194 147.228 C 200.726 147.579,201.641 147.984,202.227 148.128 C 202.812 148.272,203.291 148.526,203.291 148.693 C 203.291 148.860,203.771 149.115,204.356 149.261 C 204.942 149.406,206.641 150.330,208.132 151.314 C 212.916 154.470,213.589 154.889,213.882 154.889 C 214.040 154.889,215.860 156.051,217.927 157.471 C 223.951 161.612,226.084 163.020,226.331 163.020 C 226.458 163.020,228.813 164.806,231.564 166.989 C 234.314 169.172,238.491 172.439,240.844 174.250 C 243.197 176.060,246.276 178.587,247.685 179.864 C 249.095 181.142,251.654 183.320,253.373 184.705 C 255.160 186.145,257.261 188.299,258.282 189.739 C 259.682 191.713,260.396 192.361,261.592 192.743 C 262.431 193.011,263.640 193.813,264.279 194.526 C 264.918 195.240,265.997 196.109,266.677 196.458 C 267.358 196.808,268.926 197.932,270.162 198.956 C 272.597 200.974,278.126 202.737,281.123 202.452 C 282.409 202.330,282.329 202.267,279.574 201.224 C 275.668 199.747,273.037 198.372,271.636 197.078 C 270.997 196.487,269.864 195.721,269.119 195.375 C 266.653 194.229,265.587 193.551,265.374 192.997 C 265.259 192.696,264.943 192.449,264.674 192.449 C 263.961 192.449,259.326 188.663,258.779 187.634 C 258.523 187.152,256.519 185.307,254.326 183.533 C 252.133 181.759,249.816 179.791,249.177 179.160 C 248.538 178.528,246.709 177.023,245.111 175.815 C 238.347 170.698,235.127 168.172,233.867 166.991 C 233.130 166.300,232.412 165.734,232.272 165.733 C 232.131 165.732,231.086 164.987,229.948 164.077 C 227.780 162.343,224.770 160.310,224.372 160.310 C 224.243 160.310,223.412 159.719,222.524 158.997 C 221.174 157.899,218.864 156.370,212.378 152.279 C 211.959 152.015,210.975 151.451,210.191 151.026 C 209.407 150.601,208.656 150.077,208.523 149.861 C 208.390 149.646,207.115 148.933,205.689 148.276 C 204.264 147.620,202.836 146.933,202.517 146.749 C 202.197 146.565,200.803 145.858,199.419 145.179 C 198.035 144.500,196.467 143.640,195.934 143.269 C 195.402 142.898,194.412 142.474,193.734 142.327 C 193.057 142.181,192.310 141.829,192.075 141.545 C 191.840 141.262,191.061 140.920,190.345 140.785 C 189.628 140.651,188.838 140.295,188.589 139.995 C 188.340 139.695,187.643 139.341,187.039 139.209 C 186.436 139.076,185.278 138.629,184.467 138.216 C 183.656 137.802,182.724 137.463,182.396 137.461 C 182.069 137.460,181.278 137.112,180.639 136.689 C 180.000 136.266,179.216 135.920,178.896 135.919 C 178.374 135.918,174.754 134.892,169.990 133.395 C 166.051 132.156,155.227 131.705,148.112 132.482 M127.766 170.896 C 127.224 171.179,126.266 171.514,125.636 171.641 C 121.290 172.518,116.416 176.279,112.473 181.801 C 111.925 182.567,111.917 182.566,111.676 181.708 C 111.178 179.939,109.584 183.799,109.584 186.774 C 109.584 189.262,111.215 188.970,111.697 186.397 C 112.315 183.104,117.980 176.728,122.082 174.709 C 129.559 171.027,140.623 171.077,150.629 174.837 C 151.375 175.117,152.943 175.639,154.114 175.996 C 158.193 177.241,165.943 180.126,168.635 181.402 C 170.126 182.109,172.217 183.066,173.282 183.530 C 174.347 183.993,175.479 184.535,175.799 184.735 C 176.118 184.934,176.641 185.205,176.960 185.338 C 178.116 185.818,182.976 188.216,183.543 188.586 C 183.863 188.794,184.560 189.144,185.092 189.364 C 185.624 189.584,187.454 190.541,189.158 191.490 C 190.862 192.440,192.953 193.575,193.804 194.012 C 196.808 195.555,197.763 196.141,199.349 197.412 C 200.733 198.522,203.194 199.863,213.505 205.128 C 214.544 205.658,215.952 206.471,216.634 206.934 C 217.316 207.397,219.342 208.527,221.135 209.446 C 222.928 210.364,224.831 211.350,225.363 211.635 C 225.895 211.921,226.592 212.254,226.912 212.375 C 227.231 212.496,228.451 213.130,229.622 213.785 C 230.794 214.439,232.318 215.142,233.011 215.347 C 233.703 215.551,234.269 215.878,234.269 216.073 C 234.269 216.268,235.010 216.624,235.915 216.865 C 236.820 217.106,237.822 217.535,238.141 217.818 C 238.461 218.101,239.194 218.450,239.771 218.594 C 240.348 218.738,241.023 219.101,241.271 219.399 C 241.518 219.698,242.266 219.942,242.932 219.942 C 243.598 219.942,245.189 220.291,246.467 220.719 C 247.744 221.146,250.881 222.142,253.437 222.932 L 258.083 224.368 269.313 224.382 C 282.811 224.398,287.424 223.352,291.752 219.296 C 293.894 217.289,291.956 216.869,289.177 218.739 C 287.474 219.885,280.528 222.265,278.886 222.265 C 278.385 222.265,277.659 222.434,277.275 222.640 C 276.038 223.302,264.947 223.189,262.536 222.490 C 261.365 222.151,258.695 221.611,256.603 221.290 C 254.511 220.969,252.267 220.432,251.616 220.095 C 249.722 219.115,246.813 218.366,244.824 218.346 C 242.663 218.324,240.137 217.698,239.273 216.971 C 238.936 216.688,238.414 216.456,238.111 216.455 C 237.808 216.453,235.731 215.492,233.495 214.318 C 231.258 213.143,228.775 211.898,227.977 211.551 C 227.178 211.203,226.525 210.778,226.525 210.605 C 226.525 210.433,225.828 210.084,224.976 209.828 C 224.124 209.573,223.427 209.239,223.427 209.085 C 223.427 208.932,222.861 208.582,222.168 208.308 C 221.476 208.035,220.649 207.600,220.329 207.342 C 220.010 207.085,219.095 206.664,218.296 206.408 C 217.498 206.152,216.844 205.798,216.844 205.623 C 216.844 205.447,215.668 204.712,214.230 203.989 C 212.793 203.265,210.880 202.203,209.979 201.628 C 209.079 201.052,206.897 199.905,205.131 199.077 C 203.365 198.250,201.123 196.965,200.149 196.221 C 199.175 195.478,197.262 194.322,195.898 193.653 C 194.533 192.984,192.023 191.657,190.319 190.705 C 188.616 189.752,183.127 186.952,178.122 184.482 C 173.117 182.011,168.389 179.657,167.614 179.250 C 166.840 178.842,165.877 178.509,165.474 178.509 C 165.071 178.509,164.397 178.268,163.977 177.974 C 163.556 177.679,161.557 176.879,159.534 176.196 C 157.512 175.512,155.334 174.726,154.695 174.449 C 154.056 174.171,152.924 173.825,152.178 173.678 C 151.433 173.532,149.777 173.090,148.500 172.696 C 141.182 170.440,130.429 169.507,127.766 170.896 M110.963 184.589 C 110.575 185.599,110.298 184.883,110.612 183.686 C 110.827 182.867,110.942 182.759,111.051 183.275 C 111.132 183.660,111.092 184.252,110.963 184.589 M108.809 199.548 C 108.809 204.411,108.955 207.551,109.182 207.551 C 109.526 207.551,109.299 192.110,108.949 191.707 C 108.872 191.618,108.809 195.147,108.809 199.548 M295.450 194.906 C 295.450 195.193,295.117 195.728,294.711 196.096 C 294.304 196.464,293.870 197.167,293.747 197.658 C 293.485 198.702,291.680 200.040,288.287 201.703 L 286.738 202.462 288.480 202.481 C 290.725 202.505,293.353 201.326,293.712 200.132 C 293.863 199.634,294.599 198.586,295.348 197.803 C 296.441 196.663,296.661 196.183,296.460 195.383 C 296.200 194.347,295.450 193.993,295.450 194.906 M124.685 216.491 C 119.602 216.804,114.230 220.158,114.230 223.017 C 114.230 223.455,114.056 223.814,113.843 223.814 C 113.630 223.814,113.456 224.076,113.456 224.395 C 113.456 225.376,114.607 225.038,115.104 223.911 C 115.362 223.325,115.881 222.618,116.257 222.340 C 116.633 222.062,116.941 221.656,116.941 221.439 C 116.941 220.653,119.140 218.869,120.445 218.596 C 121.180 218.443,122.167 218.073,122.639 217.774 C 123.842 217.012,131.385 217.034,133.570 217.805 C 134.464 218.120,136.496 218.540,138.086 218.737 C 139.676 218.934,141.188 219.269,141.447 219.482 C 141.705 219.694,142.962 219.991,144.240 220.143 C 145.518 220.294,147.086 220.728,147.725 221.107 C 148.364 221.486,149.671 221.922,150.629 222.076 C 151.588 222.229,152.712 222.534,153.128 222.753 C 153.544 222.972,154.677 223.376,155.645 223.650 C 156.613 223.924,160.803 225.300,164.956 226.707 C 169.109 228.115,173.762 229.597,175.295 230.001 C 176.828 230.405,178.480 230.948,178.966 231.209 C 179.767 231.637,180.839 231.960,187.222 233.693 C 188.287 233.983,190.013 234.492,191.059 234.825 C 192.104 235.158,193.531 235.431,194.230 235.431 C 194.929 235.431,195.602 235.593,195.724 235.792 C 195.847 235.990,196.946 236.367,198.167 236.629 C 199.388 236.891,200.669 237.245,201.013 237.416 C 201.357 237.586,203.274 237.919,205.272 238.155 C 207.271 238.391,210.014 238.920,211.367 239.331 C 212.721 239.741,214.507 240.077,215.336 240.077 C 216.985 240.077,217.043 240.143,216.421 241.306 C 215.748 242.564,216.347 242.737,221.684 242.823 C 226.070 242.895,226.943 243.020,228.461 243.793 C 230.198 244.678,241.070 245.649,247.474 245.491 C 248.624 245.462,253.666 245.563,258.678 245.715 C 268.335 246.008,270.153 245.812,274.917 243.965 C 275.881 243.591,277.409 243.172,278.312 243.033 C 282.429 242.399,286.931 239.665,286.931 237.799 C 286.931 236.926,286.067 236.703,285.269 237.371 C 282.899 239.355,278.773 241.622,277.529 241.625 C 277.149 241.626,276.191 241.899,275.399 242.233 C 271.431 243.904,253.322 245.225,248.790 244.174 C 247.512 243.878,243.853 243.515,240.658 243.368 C 231.883 242.964,221.618 241.460,219.885 240.325 C 219.329 239.961,217.769 239.484,216.420 239.267 C 215.071 239.050,213.766 238.706,213.521 238.502 C 213.276 238.299,211.620 237.950,209.842 237.727 C 208.063 237.504,206.428 237.174,206.208 236.994 C 205.988 236.814,204.763 236.553,203.485 236.414 C 202.207 236.274,199.768 235.754,198.064 235.258 C 196.360 234.762,193.311 233.894,191.288 233.329 C 184.877 231.539,182.237 230.732,180.445 230.016 C 179.487 229.633,178.093 229.192,177.348 229.037 C 176.602 228.882,174.163 228.149,171.926 227.410 C 169.690 226.670,166.385 225.635,164.581 225.110 C 162.778 224.585,161.119 224.003,160.894 223.817 C 160.670 223.631,159.270 223.130,157.784 222.704 C 156.298 222.279,153.863 221.555,152.372 221.097 C 147.413 219.573,143.104 218.424,140.755 218.001 C 139.477 217.770,137.648 217.339,136.689 217.043 C 134.613 216.401,129.757 216.177,124.685 216.491 M266.021 259.067 C 262.759 259.509,260.514 260.163,259.345 261.011 C 258.760 261.434,257.430 261.943,256.388 262.140 C 255.346 262.338,253.868 262.924,253.104 263.442 C 251.303 264.664,239.835 265.103,220.329 264.696 C 204.917 264.375,203.933 264.275,203.113 262.947 C 202.959 262.700,201.244 262.536,198.795 262.536 C 194.585 262.536,191.618 262.025,185.866 260.310 C 183.061 259.473,181.581 259.301,175.841 259.145 C 167.882 258.928,167.073 259.109,164.223 261.747 L 162.134 263.681 162.409 269.708 C 162.737 276.873,163.377 279.187,165.030 279.187 C 165.620 279.187,165.344 277.047,164.569 275.601 C 163.620 273.829,163.422 266.454,164.301 265.565 C 164.579 265.284,165.121 264.530,165.505 263.892 C 167.724 260.205,177.216 259.136,184.187 261.786 C 184.713 261.986,185.613 262.149,186.188 262.149 C 186.763 262.149,187.850 262.480,188.604 262.884 C 189.554 263.393,191.495 263.756,194.919 264.066 C 197.637 264.312,200.319 264.686,200.877 264.899 C 201.435 265.111,205.822 265.533,210.626 265.837 C 215.430 266.141,220.744 266.595,222.435 266.845 C 226.028 267.377,240.692 267.023,241.460 266.386 C 241.724 266.167,242.394 266.102,242.950 266.242 C 245.232 266.814,257.545 264.330,259.312 262.940 C 259.865 262.505,260.536 262.149,260.804 262.149 C 261.071 262.149,262.050 261.804,262.978 261.383 C 263.906 260.962,265.189 260.608,265.828 260.596 C 266.467 260.585,267.328 260.320,267.741 260.007 C 268.154 259.694,269.156 259.439,269.968 259.439 C 270.779 259.439,271.442 259.264,271.442 259.051 C 271.442 258.621,269.262 258.627,266.021 259.067 M165.731 281.487 C 165.731 281.926,165.905 282.285,166.118 282.285 C 166.331 282.285,166.505 282.034,166.505 281.727 C 166.505 281.420,166.331 281.061,166.118 280.929 C 165.905 280.798,165.731 281.049,165.731 281.487 " stroke="none" fill="#b4c3d5" fill-rule="evenodd">
</path>
        <animateTransform attributeName="transform"
                          attributeType="XML"
                          type="rotate"
                          from="0 200 200"
                          to="360 200 200"
                          dur="10s"
                          repeatCount="indefinite"/>
</g>
</svg>